<svg width="25" height="24" fill="none" xmlns="http://www.w3.org/2000/svg"><path fill-rule="evenodd" clip-rule="evenodd" d="M12.882 2.332a.375.375 0 00-.468 0l-7.875 6.3a.375.375 0 00-.14.294v10.529c0 .207.167.375.374.375h4.125v-7.875a1.125 1.125 0 011.125-1.125h5.25a1.125 1.125 0 011.125 1.125v7.875h4.125a.375.375 0 00.375-.375V8.925a.374.374 0 00-.14-.293l-7.876-6.3zM11.007.576a2.625 2.625 0 013.28 0l7.876 6.3c.622.498.985 1.252.985 2.05v10.529a2.625 2.625 0 01-2.625 2.625h-5.25a1.125 1.125 0 01-1.125-1.125V13.08h-3v7.875a1.125 1.125 0 01-1.125 1.125h-5.25a2.625 2.625 0 01-2.625-2.625V8.925c0-.797.363-1.551.986-2.05l7.875-6.3h-.002z" fill="#fff"/></svg>