<svg width="32" height="32" fill="none" xmlns="http://www.w3.org/2000/svg"><g clip-path="url(#clip0_54_1626)"><path d="M31.5 16c0 8.56-6.94 15.5-15.5 15.5C7.44 31.5.5 24.56.5 16 .5 7.44 7.44.5 16 .5 24.56.5 31.5 7.44 31.5 16z" fill="#F0F0F0" stroke="#fff"/><path d="M31.005 21.565C31.648 19.832 32 17.957 32 16c0-1.957-.352-3.832-.995-5.565H.995A15.966 15.966 0 000 16c0 1.957.352 3.832.995 5.565L16 22.956l15.005-1.39z" fill="#0052B4"/><path d="M16 32c6.88 0 12.744-4.342 15.005-10.435H.995C3.255 27.658 9.121 32 16 32z" fill="#D80027"/></g><defs><clipPath id="clip0_54_1626"><path fill="#fff" d="M0 0h32v32H0z"/></clipPath></defs></svg>