<svg width="32" height="32" fill="none" xmlns="http://www.w3.org/2000/svg"><path fill-rule="evenodd" clip-rule="evenodd" d="M16 2C8.268 2 2 8.268 2 16s6.268 14 14 14 14-6.268 14-14S23.732 2 16 2z" fill="#E92B2B"/><path fill-rule="evenodd" clip-rule="evenodd" d="M28.127 23H3.873a14.065 14.065 0 002.867 3.5h18.52c1.134-1 2.105-2.183 2.867-3.5zM30 16H2c0 1.209.153 2.381.441 3.5H29.56c.288-1.119.441-2.291.441-3.5zm-1.873-7H3.873a13.915 13.915 0 00-1.432 3.5H29.56A13.912 13.912 0 0028.127 9zm-2.868-3.5H6.739a13.947 13.947 0 019.26-3.5c3.55 0 6.792 1.322 9.26 3.5z" fill="#FBFBFB"/><path fill-rule="evenodd" clip-rule="evenodd" d="M14.6 2.07V16H2C2 8.74 7.526 2.771 14.6 2.07z" fill="#2A2FAF"/><path fill-rule="evenodd" clip-rule="evenodd" d="M4.135 8.567h.598l-.823.598.314.968-.693-.504c.186-.363.388-.717.604-1.062zm-1.803 4.391l.044-.19h.71l.315-.968.314.967h1.017l-.823.598.314.967-.822-.597-.823.597.314-.967-.56-.407zm4.655-7.671c.39-.328.797-.635 1.22-.92h.725l-.823.598.314.967-.823-.597-.823.597.21-.645z" fill="#FBFBFB"/><path d="M7.601 7.6l.314.967h1.017l-.822.598.314.968-.823-.598-.823.598.314-.968-.823-.598h1.018L7.6 7.6zm0 4.2l.314.967h1.017l-.822.598.314.967-.823-.597-.823.597.314-.967-.823-.598h1.018L7.6 11.8zM11.8 3.4l.315.967h1.017l-.823.598.314.968-.823-.598-.823.598.315-.968-.823-.598h1.017L11.8 3.4zm0 4.2l.315.967h1.017l-.823.598.314.968-.823-.598-.823.598.315-.968-.823-.598h1.017L11.8 7.6zm0 4.2l.315.967h1.017l-.823.598.314.967-.823-.597-.823.597.315-.967-.823-.598h1.017l.314-.967z" fill="#FBFBFB"/></svg>