<svg width="250" height="27" fill="none" xmlns="http://www.w3.org/2000/svg"><path d="M19.492 12.896c1.44.456 2.568 1.224 3.384 2.304.816 1.056 1.224 2.364 1.224 3.924 0 2.208-.864 3.912-2.592 5.112C19.804 25.412 17.308 26 14.02 26H.988V.8H13.3c3.072 0 5.424.588 7.056 1.764 1.656 1.176 2.484 2.772 2.484 4.788 0 1.224-.3 2.316-.9 3.276-.576.96-1.392 1.716-2.448 2.268zM6.784 5.192v5.94h5.796c1.44 0 2.532-.252 3.276-.756.744-.504 1.116-1.248 1.116-2.232 0-.984-.372-1.716-1.116-2.196-.744-.504-1.836-.756-3.276-.756H6.784zm6.804 16.416c1.536 0 2.688-.252 3.456-.756.792-.504 1.188-1.284 1.188-2.34 0-2.088-1.548-3.132-4.644-3.132H6.784v6.228h6.804zm34.44-.288V26H28.514V.8H47.56v4.68H34.311v5.472h11.7v4.536h-11.7v5.832h13.716zM52.667.8h11.448c2.736 0 5.148.528 7.236 1.584 2.112 1.032 3.744 2.496 4.896 4.392 1.176 1.896 1.764 4.104 1.764 6.624 0 2.52-.588 4.728-1.764 6.624-1.152 1.896-2.784 3.372-4.896 4.428-2.088 1.032-4.5 1.548-7.236 1.548H52.668V.8zm11.16 20.412c2.52 0 4.524-.696 6.012-2.088 1.512-1.416 2.268-3.324 2.268-5.724 0-2.4-.756-4.296-2.268-5.688-1.488-1.416-3.492-2.124-6.012-2.124H58.5v15.624h5.328zM82.41.8h5.832v20.448h12.636V26H82.41V.8zm38.533 19.8h-11.7l-2.232 5.4h-5.976L112.267.8h5.76L129.295 26h-6.12l-2.232-5.4zm-1.836-4.428l-3.996-9.648-3.996 9.648h7.992zM154.842 26l-.036-15.12-7.416 12.456h-2.628l-7.38-12.132V26h-5.472V.8h4.824l9.432 15.66L155.454.8h4.788l.072 25.2h-5.472zM176.488.8h5.832V26h-5.832V.8zm34.925 0V26h-4.788l-12.564-15.3V26h-5.76V.8h4.824l12.527 15.3V.8h5.761zm18.022 25.632c-2.568 0-4.896-.552-6.984-1.656-2.064-1.128-3.696-2.676-4.896-4.644-1.176-1.992-1.764-4.236-1.764-6.732 0-2.496.588-4.728 1.764-6.696a12.485 12.485 0 014.896-4.644c2.088-1.128 4.428-1.692 7.02-1.692 2.184 0 4.152.384 5.904 1.152 1.776.768 3.264 1.872 4.464 3.312l-3.744 3.456c-1.704-1.968-3.816-2.952-6.336-2.952-1.56 0-2.952.348-4.176 1.044a7.293 7.293 0 00-2.88 2.844c-.672 1.224-1.008 2.616-1.008 4.176s.336 2.952 1.008 4.176a7.545 7.545 0 002.88 2.88c1.224.672 2.616 1.008 4.176 1.008 2.52 0 4.632-.996 6.336-2.988l3.744 3.456a11.67 11.67 0 01-4.464 3.348c-1.776.768-3.756 1.152-5.94 1.152zm16.492-.144c-.984 0-1.812-.336-2.484-1.008-.672-.672-1.008-1.512-1.008-2.52 0-1.032.336-1.86 1.008-2.484.672-.648 1.5-.972 2.484-.972s1.812.324 2.484.972c.672.624 1.008 1.452 1.008 2.484 0 1.008-.336 1.848-1.008 2.52-.672.672-1.5 1.008-2.484 1.008z" fill="#fff"/></svg>