<svg width="131" height="19" fill="none" xmlns="http://www.w3.org/2000/svg"><path d="M19.144 1.2L11.872 18h-3.84L.784 1.2h4.2l5.112 12 5.184-12h3.864zm14.41 13.68V18H20.548V1.2h12.696v3.12H24.41v3.648h7.8v3.024h-7.8v3.888h9.144zM52.057 1.2V18h-3.192L40.488 7.8V18h-3.84V1.2h3.216l8.352 10.2V1.2h3.84zm3.975 0h7.632c1.824 0 3.432.352 4.824 1.056 1.408.688 2.496 1.664 3.264 2.928.784 1.264 1.176 2.736 1.176 4.416 0 1.68-.392 3.152-1.176 4.416-.768 1.264-1.856 2.248-3.264 2.952-1.392.688-3 1.032-4.824 1.032h-7.632V1.2zm7.44 13.608c1.68 0 3.016-.464 4.008-1.392 1.008-.944 1.512-2.216 1.512-3.816 0-1.6-.504-2.864-1.512-3.792-.992-.944-2.328-1.416-4.008-1.416H59.92v10.416h3.552zm19.852 3.48c-2.4 0-4.272-.664-5.616-1.992-1.328-1.328-1.992-3.224-1.992-5.688V1.2h3.888v9.264c0 3.008 1.248 4.512 3.744 4.512 1.216 0 2.144-.36 2.784-1.08.64-.736.96-1.88.96-3.432V1.2h3.84v9.408c0 2.464-.672 4.36-2.016 5.688-1.328 1.328-3.192 1.992-5.592 1.992zm22.802-8.952h3.552v6.816c-.912.688-1.968 1.216-3.168 1.584a12.3 12.3 0 01-3.624.552c-1.744 0-3.312-.368-4.704-1.104-1.392-.752-2.488-1.784-3.288-3.096-.784-1.328-1.176-2.824-1.176-4.488 0-1.664.392-3.152 1.176-4.464.8-1.328 1.904-2.36 3.312-3.096 1.408-.752 2.992-1.128 4.752-1.128 1.472 0 2.808.248 4.008.744a7.942 7.942 0 013.024 2.16l-2.496 2.304c-1.2-1.264-2.648-1.896-4.344-1.896-1.072 0-2.024.224-2.856.672a4.822 4.822 0 00-1.944 1.896c-.464.816-.696 1.752-.696 2.808 0 1.04.232 1.968.696 2.784a5.032 5.032 0 001.92 1.92c.832.448 1.776.672 2.832.672 1.12 0 2.128-.24 3.024-.72v-4.92zm15.3 8.952c-1.744 0-3.32-.376-4.728-1.128-1.392-.752-2.488-1.784-3.288-3.096-.784-1.328-1.176-2.816-1.176-4.464 0-1.648.392-3.128 1.176-4.44a8.452 8.452 0 013.288-3.12c1.408-.752 2.984-1.128 4.728-1.128 1.744 0 3.312.376 4.704 1.128a8.452 8.452 0 013.288 3.12c.8 1.312 1.2 2.792 1.2 4.44 0 1.648-.4 3.136-1.2 4.464-.8 1.312-1.896 2.344-3.288 3.096-1.392.752-2.96 1.128-4.704 1.128zm0-3.312c.992 0 1.888-.224 2.688-.672a4.909 4.909 0 001.872-1.92c.464-.816.696-1.744.696-2.784 0-1.04-.232-1.968-.696-2.784a4.744 4.744 0 00-1.872-1.896c-.8-.464-1.696-.696-2.688-.696-.992 0-1.888.232-2.688.696a4.907 4.907 0 00-1.896 1.896c-.448.816-.672 1.744-.672 2.784 0 1.04.224 1.968.672 2.784a5.08 5.08 0 001.896 1.92c.8.448 1.696.672 2.688.672z" fill="#fff"/></svg>