<svg width="64" height="64" viewBox="0 0 64 64" fill="none" xmlns="http://www.w3.org/2000/svg">
<g clip-path="url(#clip0_13957_4053)">
<path d="M30.6998 30.1997H18.7998C18.1998 30.1997 17.7998 29.7997 17.7998 29.1997C17.7998 28.5997 18.1998 28.1997 18.7998 28.1997H30.6998C31.2998 28.1997 31.6998 28.5997 31.6998 29.1997C31.6998 29.7997 31.2998 30.1997 30.6998 30.1997V30.1997Z" fill="#E62828"/>
<path d="M8 29.7999C7.9 29.7999 7.8 29.7999 7.7 29.6999L4.2 28.3999C3.4 28.0999 2.7 27.2999 2.6 26.4999V26.3999L2.5 25.1999C2.4 24.2999 2.7 23.4999 3.5 22.8999L3.6 22.7999C3.6 22.6999 3.6 22.5999 3.6 22.5999L3.9 21.2999C4 20.1999 5.1 19.2999 6.4 19.2999H7.7H7.9C9.4 18.5999 10.6 18.0999 11.6 17.5999C14.4 16.1999 16.2 15.3999 19.6 15.1999C23.9 14.6999 25.8 16.2999 29.1 18.9999L30 19.7999C30.2 19.8999 30.2 19.8999 30.2 19.8999H30.4C35.5 19.5999 39.8 20.2999 43.3 22.1999C44.1 22.6999 44.6 23.4999 44.6 24.3999V27.1999C44.6 28.5999 43.5 29.6999 42.1 29.6999H41.5C40.9 29.6999 40.5 29.2999 40.5 28.6999C40.5 28.0999 40.9 27.6999 41.5 27.6999H42C42.4 27.6999 42.5 27.3999 42.5 27.1999V24.3999C42.5 24.2999 42.4 24.0999 42.2 23.9999C39 22.2999 35.2 21.5999 30.5 21.8999C29.9 21.9999 29.3 21.8999 28.7 21.3999L27.7 20.5999C24.6 17.9999 23.2 16.8999 19.7 17.2999C16.6 17.3999 15.1 18.1999 12.4 19.4999C11.4 19.9999 10.2 20.5999 8.6 21.1999C8.2 21.3999 7.9 21.3999 7.6 21.3999H6.3C6.1 21.3999 5.8 21.5999 5.8 21.6999L5.5 22.9999C5.5 23.6999 5.1 24.1999 4.6 24.5999C4.5 24.6999 4.4 24.7999 4.4 24.9999V25.0999L4.5 26.1999C4.6 26.3999 4.7 26.5999 4.9 26.5999L8.4 27.8999C8.9 28.0999 9.2 28.6999 9 29.1999C8.8 29.5999 8.4 29.7999 8 29.7999V29.7999Z" fill="#E62828"/>
<path d="M36.0002 32.2001C33.6002 32.2001 31.7002 30.3001 31.7002 27.9001C31.7002 25.5001 33.6002 23.6001 36.0002 23.6001C38.4002 23.6001 40.3002 25.5001 40.3002 27.9001C40.3002 30.3001 38.4002 32.2001 36.0002 32.2001ZM36.0002 25.6001C34.7002 25.6001 33.7002 26.6001 33.7002 27.9001C33.7002 29.2001 34.7002 30.2001 36.0002 30.2001C37.3002 30.2001 38.3002 29.2001 38.3002 27.9001C38.3002 26.6001 37.3002 25.6001 36.0002 25.6001Z" fill="#E62828"/>
<path d="M13.3996 32.2001C10.9996 32.2001 9.09961 30.3001 9.09961 27.9001C9.09961 25.5001 10.9996 23.6001 13.3996 23.6001C15.7996 23.6001 17.6996 25.5001 17.6996 27.9001C17.6996 30.3001 15.7996 32.2001 13.3996 32.2001V32.2001ZM13.3996 25.6001C12.0996 25.6001 11.0996 26.6001 11.0996 27.9001C11.0996 29.2001 12.0996 30.2001 13.3996 30.2001C14.6996 30.2001 15.6996 29.2001 15.6996 27.9001C15.6996 26.6001 14.6996 25.6001 13.3996 25.6001V25.6001Z" fill="#E62828"/>
<path d="M42.9 43.5H24C23.4 43.5 23 43.1 23 42.5C23 41.9 23.4 41.5 24 41.5H42.9C43.5 41.5 43.9 41.9 43.9 42.5C43.9 43.1 43.5 43.5 42.9 43.5Z" fill="#E62828"/>
<path d="M7.3 43.5H3.9C1.7 43.5 0 41.7 0 39.6V36.5C0 34.3 1.8 32.5 4 32.5H46.9V19.5C46.9 17.3 48.7 15.5 50.9 15.5H55.6C57.6 15.5 59.3 16.7 60.1 18.5L60.7 19.9L63.7 27.2C63.9 27.5 63.9 27.9 64 28.1C64 28.2 64 28.3 64.1 28.3C64.1 28.4 64.2 28.5 64.2 28.6V39.4C64.2 41.6 62.5 43.3 60.3 43.3H59.7C59.1 43.3 58.7 42.9 58.7 42.3C58.7 41.7 59.1 41.3 59.7 41.3H60.3C61.3 41.3 62.2 40.4 62.2 39.4V28.8C62.2 28.7 62.2 28.6 62.1 28.5C62.1 28.3 62 28.2 62 28L58.4 19.2C57.9 18.1 56.9 17.4 55.7 17.4H51C49.9 17.4 49 18.3 49 19.4V33.4C49 34 48.6 34.4 48 34.4H4C2.9 34.4 2 35.3 2 36.4V39.5C2 40.5 2.9 41.4 3.9 41.4H7.3C7.9 41.4 8.3 41.8 8.3 42.4C8.3 43 7.9 43.5 7.3 43.5V43.5Z" fill="#E62828"/>
<path d="M59.8996 29.6998H53.9996C52.3996 29.6998 51.0996 28.3998 51.0996 26.7998V22.1998C51.0996 20.5998 52.3996 19.2998 53.9996 19.2998H56.4996C57.0996 19.2998 57.4996 19.6998 57.4996 20.2998C57.4996 20.8998 57.0996 21.2998 56.4996 21.2998H53.9996C53.3996 21.2998 53.0996 21.7998 53.0996 22.1998V26.7998C53.0996 27.3998 53.5996 27.6998 53.9996 27.6998H59.8996C60.4996 27.6998 60.8996 28.0998 60.8996 28.6998C60.8996 29.2998 60.4996 29.6998 59.8996 29.6998V29.6998Z" fill="#E62828"/>
<path d="M52.0996 34.9001C51.4996 34.9001 51.0996 34.5001 51.0996 33.9001V32.1001C51.0996 31.5001 51.4996 31.1001 52.0996 31.1001C52.6996 31.1001 53.0996 31.5001 53.0996 32.1001V33.9001C53.0996 34.5001 52.6996 34.9001 52.0996 34.9001Z" fill="#E62828"/>
<path d="M61.4001 38.1999H61.3001C60.0001 38.1999 58.8002 37.6999 57.9002 36.7999C57.2002 36.0999 57.0002 34.9999 57.4002 33.9999C57.8002 32.9999 58.8001 32.3999 59.8001 32.3999H61.4001C62.9001 32.3999 64.0001 33.4999 64.0001 34.9999V35.5999C64.0001 37.0999 62.9001 38.1999 61.4001 38.1999V38.1999ZM59.8001 34.3999C59.5001 34.3999 59.3002 34.5999 59.2002 34.7999C59.1002 34.9999 59.1001 35.1999 59.3001 35.3999C59.8001 35.8999 60.6001 36.1999 61.3001 36.1999H61.4001C61.7001 36.1999 62.0001 35.8999 62.0001 35.5999V34.9999C62.0001 34.6999 61.7001 34.3999 61.4001 34.3999H59.8001Z" fill="#E62828"/>
<path d="M51.2004 48.7997C47.7004 48.7997 44.9004 45.9997 44.9004 42.4997C44.9004 38.9997 47.7004 36.1997 51.2004 36.1997C54.7004 36.1997 57.5004 38.9997 57.5004 42.4997C57.5004 45.9997 54.7004 48.7997 51.2004 48.7997ZM51.2004 38.1997C48.9004 38.1997 46.9004 40.1997 46.9004 42.4997C46.9004 44.7997 48.9004 46.7997 51.2004 46.7997C53.5004 46.7997 55.5004 44.7997 55.5004 42.4997C55.5004 39.9997 53.7004 38.1997 51.2004 38.1997Z" fill="#E62828"/>
<path d="M15.5998 48.7997C12.0998 48.7997 9.2998 45.9997 9.2998 42.4997C9.2998 38.9997 12.0998 36.1997 15.5998 36.1997C19.0998 36.1997 21.8998 38.9997 21.8998 42.4997C21.8998 45.9997 19.0998 48.7997 15.5998 48.7997V48.7997ZM15.5998 38.1997C13.2998 38.1997 11.2998 40.1997 11.2998 42.4997C11.2998 44.7997 13.2998 46.7997 15.5998 46.7997C17.8998 46.7997 19.8998 44.7997 19.8998 42.4997C19.8998 40.0997 17.9998 38.1997 15.5998 38.1997V38.1997Z" fill="#E62828"/>
</g>
<defs>
<clipPath id="clip0_13957_4053">
<rect width="64" height="64" fill="white"/>
</clipPath>
</defs>
</svg>
