<svg width="64" height="64" viewBox="0 0 64 64" fill="none" xmlns="http://www.w3.org/2000/svg">
<g clip-path="url(#clip0_13957_5553)">
<path d="M25.1178 29.0319C23.695 29.0319 22.5371 27.874 22.5371 26.4513C22.5371 25.0285 23.695 23.8706 25.1178 23.8706C26.5405 23.8706 27.6984 25.0285 27.6984 26.4513C27.6984 27.874 26.5405 29.0319 25.1178 29.0319Z" fill="#E62828"/>
<path d="M35.441 29.0319C34.0182 29.0319 32.8604 27.874 32.8604 26.4513C32.8604 25.0285 34.0182 23.8706 35.441 23.8706C36.8638 23.8706 38.0216 25.0285 38.0216 26.4513C38.0216 27.874 36.8638 29.0319 35.441 29.0319Z" fill="#E62828"/>
<path d="M58.6663 35.9138V20.4299H51.7846V8.38693H41.3038C40.9476 7.38822 40.0014 6.6665 38.8814 6.6665H25.118C23.998 6.6665 23.0517 7.38822 22.6956 8.38693H12.2147V32.473H9.63408C7.26247 32.473 5.33301 34.4024 5.33301 36.774C5.33301 39.1456 7.26247 41.0751 9.63408 41.0751H12.2147V59.9998H51.7846V53.1181H58.6663V37.6342H51.7846V35.9138H58.6663ZM56.9459 34.1934H44.9029V22.1504H56.9459V34.1934ZM43.1825 37.6342V53.1181H46.6233V54.8385H17.376V41.0751H33.8767L40.0977 38.7422C40.9132 38.4368 41.462 37.6454 41.462 36.774C41.462 35.9026 40.9132 35.1112 40.0986 34.8059L33.8767 32.473H17.376V13.5482H22.6956C23.0517 14.5469 23.998 15.2687 25.118 15.2687H38.8814C40.0014 15.2687 40.9476 14.5469 41.3038 13.5482H46.6233V20.4299H43.1825V35.9138H46.6233V37.6342H43.1825ZM32.8599 34.1934V35.9138H12.2147V34.1934H32.8599ZM34.5803 34.5745L39.4947 36.417C39.6427 36.473 39.7416 36.6157 39.7416 36.774C39.7416 36.9323 39.6427 37.0751 39.4939 37.131L34.5803 38.9736V34.5745ZM12.2147 37.6342H32.8599V39.3547H12.2147V37.6342ZM50.0642 20.4299H48.3438V11.8278H41.462V10.1074H50.0642V20.4299ZM24.2577 9.24715C24.2577 8.77317 24.6431 8.38693 25.118 8.38693H38.8814C39.3562 8.38693 39.7416 8.77317 39.7416 9.24715V12.688C39.7416 13.162 39.3562 13.5482 38.8814 13.5482H25.118C24.6431 13.5482 24.2577 13.162 24.2577 12.688V9.24715ZM13.9352 10.1074H22.5373V11.8278H15.6556V32.473H13.9352V10.1074ZM7.05344 36.774C7.05344 35.3512 8.21129 34.1934 9.63408 34.1934H10.4943V39.3547H9.63408C8.21129 39.3547 7.05344 38.1968 7.05344 36.774ZM50.0642 58.2794H13.9352V41.0751H15.6556V56.559H48.3438V53.1181H50.0642V58.2794ZM56.9459 51.3977H44.9029V39.3547H56.9459V51.3977ZM50.0642 37.6342H48.3438V35.9138H50.0642V37.6342Z" fill="#E62828"/>
<path d="M26.8387 11.8279C27.3138 11.8279 27.6989 11.4427 27.6989 10.9676C27.6989 10.4926 27.3138 10.1074 26.8387 10.1074C26.3636 10.1074 25.9785 10.4926 25.9785 10.9676C25.9785 11.4427 26.3636 11.8279 26.8387 11.8279Z" fill="#E62828"/>
<path d="M37.161 11.8279C37.6361 11.8279 38.0212 11.4427 38.0212 10.9676C38.0212 10.4926 37.6361 10.1074 37.161 10.1074C36.6859 10.1074 36.3008 10.4926 36.3008 10.9676C36.3008 11.4427 36.6859 11.8279 37.161 11.8279Z" fill="#E62828"/>
<path d="M33.0178 25.5913H27.5391C27.6363 25.8614 27.6982 26.1487 27.6982 26.4515C27.6982 26.7543 27.6363 27.0416 27.5399 27.3117H33.0186C32.9214 27.0416 32.8595 26.7543 32.8595 26.4515C32.8595 26.1487 32.9214 25.8614 33.0178 25.5913Z" fill="#E62828"/>
<path d="M38.5754 20.4749L38.0214 19.3669C37.2877 17.9002 35.8141 16.9893 34.1745 16.9893H27.8046C25.827 16.9893 24.1117 18.3286 23.6317 20.2478L23.5853 20.4293H23.3978C21.0261 20.4293 19.0967 22.3596 19.0967 24.7312C19.0967 26.154 20.2545 27.3118 21.6773 27.3118H22.6958C22.5995 27.0417 22.5375 26.7544 22.5375 26.4516C22.5375 26.1488 22.5995 25.8615 22.6958 25.5914H21.6773C21.2025 25.5914 20.8171 25.2052 20.8171 24.7312C20.8171 23.3084 21.975 22.1506 23.3978 22.1497H24.9298L25.3006 20.6641C25.5887 19.514 26.6184 18.7097 27.8046 18.7097H34.1745C35.1586 18.7097 36.0421 19.2559 36.4825 20.1359L37.4898 22.1506H38.0214C38.9702 22.1506 39.7419 22.9222 39.7419 23.871V24.7312C39.7419 25.2052 39.3565 25.5914 38.8816 25.5914H37.8631C37.9595 25.8615 38.0214 26.1488 38.0214 26.4516C38.0214 26.7544 37.9595 27.0417 37.8631 27.3118H38.8816C40.3044 27.3118 41.4623 26.154 41.4623 24.7312V23.871C41.4623 22.1626 40.2107 20.7407 38.5754 20.4749V20.4749Z" fill="#E62828"/>
<path d="M19.0967 44.5161H20.8171V46.2365H19.0967V44.5161Z" fill="#E62828"/>
<path d="M22.5371 44.5161H41.4619V46.2365H22.5371V44.5161Z" fill="#E62828"/>
<path d="M19.0967 47.957H22.5375V49.6775H19.0967V47.957Z" fill="#E62828"/>
<path d="M24.2578 47.957H38.0213V49.6775H24.2578V47.957Z" fill="#E62828"/>
<path d="M39.7412 47.957H41.4617V49.6775H39.7412V47.957Z" fill="#E62828"/>
<path d="M19.0967 51.3975H41.4623V53.1179H19.0967V51.3975Z" fill="#E62828"/>
<path d="M55.8341 25.3394L54.6178 24.123L48.3442 30.3966L47.232 29.2843L46.0156 30.5007L48.3442 32.8293L55.8341 25.3394Z" fill="#E62828"/>
<path d="M55.8341 42.5435L54.6178 41.3271L48.3442 47.6007L47.232 46.4884L46.0156 47.7048L48.3442 50.0334L55.8341 42.5435Z" fill="#E62828"/>
</g>
<defs>
<clipPath id="clip0_13957_5553">
<rect width="53.3333" height="53.3333" fill="white" transform="translate(5.33301 6.6665)"/>
</clipPath>
</defs>
</svg>
