<svg width="64" height="64" viewBox="0 0 64 64" fill="none" xmlns="http://www.w3.org/2000/svg">
<g clip-path="url(#clip0_13957_5585)">
<path d="M60 29.3334H59.84H55.66C55.07 25.7734 53.66 22.3834 51.55 19.4334L54.5 16.4834C54.86 16.1234 54.89 15.5534 54.57 15.1534C53.27 13.5334 51.79 12.0534 50.17 10.7634C49.77 10.4434 49.2 10.4734 48.84 10.8334L45.89 13.7834C42.94 11.6834 39.55 10.2734 35.99 9.67338V5.49338C35.99 4.98338 35.61 4.55338 35.1 4.50338C33.14 4.28338 30.84 4.28338 28.88 4.50338C28.38 4.55338 28 4.98338 28 5.49338V9.67338C24.44 10.2634 21.05 11.6734 18.1 13.7834L15.15 10.8334C14.79 10.4734 14.22 10.4434 13.82 10.7634C12.2 12.0634 10.72 13.5434 9.43 15.1534C9.11 15.5534 9.14 16.1234 9.5 16.4834L12.45 19.4334C10.35 22.3834 8.94 25.7734 8.34 29.3334H4.16H4C3.45 29.3334 3 29.7834 3 30.3334V33.3334V36.3334C3 36.8834 3.45 37.3334 4 37.3334H4.16H8.34C8.93 40.8934 10.34 44.2834 12.45 47.2334L9.5 50.1834C9.14 50.5434 9.11 51.1134 9.43 51.5134C10.73 53.1334 12.21 54.6134 13.82 55.9034C14.22 56.2234 14.79 56.1934 15.15 55.8334L18.1 52.8834C21.05 54.9834 24.44 56.3934 28 56.9934V61.1734C28 61.6834 28.38 62.1134 28.89 62.1634C29.87 62.2734 30.92 62.3334 32 62.3334C33.08 62.3334 34.13 62.2734 35.11 62.1634C35.61 62.1034 36 61.6834 36 61.1734V56.9934C38.66 56.5534 41.21 55.6534 43.61 54.3234C44.09 54.0534 44.27 53.4434 44 52.9634C43.73 52.4834 43.12 52.3034 42.64 52.5734C40.21 53.9234 37.6 54.7834 34.88 55.1334C34.37 55.2034 34 55.6334 34 56.1334V60.2634C32.71 60.3534 31.29 60.3534 30 60.2634V56.1334C30 55.6334 29.63 55.2034 29.13 55.1434C25.32 54.6534 21.68 53.1434 18.61 50.7834C18.21 50.4734 17.65 50.5134 17.29 50.8734L14.37 53.7934C13.36 52.9234 12.41 51.9834 11.54 50.9634L14.46 48.0434C14.82 47.6834 14.85 47.1234 14.55 46.7234C12.19 43.6534 10.68 40.0234 10.19 36.2034C10.13 35.7034 9.7 35.3334 9.2 35.3334H5.08C5.07 35.2634 5.07 35.1934 5.06 35.1234C5.03 34.5434 5 33.9434 5 33.3334C5 32.7234 5.03 32.1234 5.06 31.5434C5.06 31.4734 5.07 31.4034 5.08 31.3334H9.2C9.7 31.3334 10.13 30.9634 10.19 30.4634C10.68 26.6534 12.19 23.0134 14.55 19.9434C14.86 19.5434 14.82 18.9834 14.46 18.6234L11.54 15.7034C12.41 14.6934 13.35 13.7434 14.37 12.8734L17.29 15.7934C17.65 16.1534 18.21 16.1834 18.61 15.8834C21.68 13.5234 25.31 12.0134 29.13 11.5234C29.63 11.4634 30 11.0334 30 10.5334V6.40338C31.29 6.31338 32.71 6.31338 34 6.40338V10.5334C34 11.0334 34.37 11.4634 34.87 11.5234C38.68 12.0134 42.32 13.5234 45.39 15.8834C45.79 16.1934 46.35 16.1534 46.71 15.7934L49.63 12.8734C50.64 13.7434 51.59 14.6834 52.46 15.7034L49.54 18.6234C49.18 18.9834 49.15 19.5434 49.46 19.9434C51.82 23.0034 53.33 26.6434 53.82 30.4634C53.87 30.9634 54.3 31.3334 54.8 31.3334H58.92C58.93 31.4034 58.93 31.4734 58.94 31.5434C58.97 32.1234 59 32.7234 59 33.3334C59 33.9434 58.97 34.5434 58.94 35.1234C58.94 35.1934 58.93 35.2634 58.92 35.3334H54.8C54.3 35.3334 53.87 35.7034 53.81 36.2034C53.46 38.9234 52.6 41.5334 51.25 43.9634C50.98 44.4434 51.16 45.0534 51.64 45.3234C52.12 45.5934 52.73 45.4134 53 44.9334C54.33 42.5434 55.22 39.9834 55.67 37.3234H59.85H60C60.55 37.3234 61 36.8734 61 36.3234V33.3234V30.3234C61 29.7834 60.55 29.3334 60 29.3334V29.3334Z" fill="#E62828"/>
<path d="M41.24 37.1536C42.19 34.8636 42.26 32.3236 41.41 29.9236C40.43 27.1436 38.19 24.8936 35.4 23.9136C32.76 22.9836 29.96 23.1636 27.51 24.3936C27.22 24.5336 27.02 24.8136 26.97 25.1236C26.92 25.4336 27.02 25.7636 27.25 25.9936L30.59 29.3336H29C28.45 29.3336 28 29.7836 28 30.3336V31.9236L24.67 28.5936C24.44 28.3636 24.12 28.2636 23.8 28.3136C23.48 28.3636 23.21 28.5636 23.07 28.8536C21.83 31.3036 21.66 34.1136 22.59 36.7436C23.57 39.5236 25.81 41.7736 28.6 42.7536C31 43.5936 33.54 43.5336 35.83 42.5836L51.3 58.0536C52.05 58.8036 53.03 59.1736 54.01 59.1736C54.99 59.1736 55.97 58.8036 56.72 58.0536C58.21 56.5636 58.21 54.1336 56.72 52.6436L41.24 37.1536ZM30 31.3336H32.59L34 32.7436V35.3336H31.41L30 33.9236V31.3336ZM55.29 56.6236C54.58 57.3336 53.42 57.3336 52.7 56.6236L36.75 40.6636C36.56 40.4736 36.3 40.3736 36.04 40.3736C35.89 40.3736 35.73 40.4136 35.59 40.4836C33.63 41.4736 31.38 41.6036 29.26 40.8636C27.04 40.0836 25.25 38.2936 24.47 36.0736C23.89 34.4236 23.84 32.6836 24.32 31.0736L30.29 37.0436C30.48 37.2236 30.73 37.3336 31 37.3336H35C35.55 37.3336 36 36.8836 36 36.3336V32.3336C36 32.0636 35.89 31.8136 35.71 31.6236L29.74 25.6536C31.35 25.1736 33.09 25.2236 34.74 25.8036C36.96 26.5836 38.75 28.3736 39.53 30.5836C40.27 32.7036 40.14 34.9536 39.15 36.9136C38.96 37.3036 39.03 37.7636 39.34 38.0736L55.3 54.0336C56.01 54.7536 56.01 55.9136 55.29 56.6236V56.6236Z" fill="#E62828"/>
<path d="M47.25 40.8934C47.76 41.1134 48.34 40.8734 48.56 40.3634C49.09 39.1134 49.48 37.8134 49.71 36.5134C49.9 35.4934 50 34.4234 50 33.3334C50 32.2434 49.9 31.1734 49.72 30.1634C49.27 27.5934 48.28 25.2034 46.78 23.0534C45.56 21.2934 44.05 19.7834 42.29 18.5634C40.14 17.0534 37.75 16.0634 35.19 15.6234C33.14 15.2434 30.86 15.2434 28.84 15.6234C26.27 16.0734 23.88 17.0634 21.73 18.5634C19.97 19.7834 18.46 21.2934 17.24 23.0534C15.73 25.2034 14.74 27.5934 14.3 30.1534C14.1 31.1734 14 32.2434 14 33.3334C14 34.4234 14.1 35.4934 14.29 36.5034C14.74 39.0734 15.73 41.4634 17.23 43.6134C18.45 45.3734 19.96 46.8834 21.72 48.1034C23.87 49.6134 26.26 50.6034 28.82 51.0434C29.84 51.2334 30.91 51.3334 32 51.3334C33.09 51.3334 34.16 51.2334 35.17 51.0434C36.48 50.8134 37.78 50.4234 39.03 49.8934C39.54 49.6734 39.78 49.0934 39.56 48.5834C39.34 48.0734 38.76 47.8334 38.25 48.0534C37.14 48.5234 35.98 48.8734 34.81 49.0734C33 49.4134 30.99 49.4134 29.16 49.0734C26.88 48.6734 24.76 47.7934 22.85 46.4534C21.29 45.3734 19.95 44.0334 18.86 42.4634C17.52 40.5534 16.65 38.4334 16.24 36.1434C16.08 35.2434 16 34.3034 16 33.3334C16 32.3634 16.08 31.4234 16.25 30.5034C16.65 28.2234 17.53 26.1034 18.87 24.1934C19.95 22.6334 21.29 21.2934 22.86 20.2034C24.77 18.8634 26.89 17.9934 29.18 17.5834C30.99 17.2434 33 17.2434 34.83 17.5834C37.11 17.9834 39.23 18.8634 41.14 20.2034C42.7 21.2834 44.04 22.6234 45.13 24.1934C46.47 26.1034 47.35 28.2234 47.75 30.5134C47.92 31.4234 48 32.3734 48 33.3334C48 34.2934 47.92 35.2434 47.75 36.1634C47.55 37.3234 47.2 38.4734 46.73 39.5934C46.51 40.0934 46.75 40.6834 47.25 40.8934Z" fill="#E62828"/>
<path d="M31 19.3335V21.3335C31 21.8835 31.45 22.3335 32 22.3335C32.55 22.3335 33 21.8835 33 21.3335V19.3335C33 18.7835 32.55 18.3335 32 18.3335C31.45 18.3335 31 18.7835 31 19.3335Z" fill="#E62828"/>
<path d="M20 32.3335H18C17.45 32.3335 17 32.7835 17 33.3335C17 33.8835 17.45 34.3335 18 34.3335H20C20.55 34.3335 21 33.8835 21 33.3335C21 32.7835 20.55 32.3335 20 32.3335Z" fill="#E62828"/>
<path d="M44 34.3335H46C46.55 34.3335 47 33.8835 47 33.3335C47 32.7835 46.55 32.3335 46 32.3335H44C43.45 32.3335 43 32.7835 43 33.3335C43 33.8835 43.45 34.3335 44 34.3335Z" fill="#E62828"/>
<path d="M33 47.3335V45.3335C33 44.7835 32.55 44.3335 32 44.3335C31.45 44.3335 31 44.7835 31 45.3335V47.3335C31 47.8835 31.45 48.3335 32 48.3335C32.55 48.3335 33 47.8835 33 47.3335Z" fill="#E62828"/>
<path d="M22.0003 44.3333C22.2603 44.3333 22.5103 44.2333 22.7103 44.0433L23.7103 43.0433C24.1003 42.6533 24.1003 42.0233 23.7103 41.6333C23.3203 41.2433 22.6903 41.2433 22.3003 41.6333L21.3003 42.6333C20.9103 43.0233 20.9103 43.6533 21.3003 44.0433C21.4903 44.2333 21.7403 44.3333 22.0003 44.3333Z" fill="#E62828"/>
<path d="M41.2896 22.6235L40.2896 23.6235C39.8996 24.0135 39.8996 24.6435 40.2896 25.0335C40.4896 25.2335 40.7396 25.3335 40.9996 25.3335C41.2596 25.3335 41.5096 25.2335 41.7096 25.0435L42.7096 24.0435C43.0996 23.6535 43.0996 23.0235 42.7096 22.6335C42.3196 22.2435 41.6796 22.2335 41.2896 22.6235Z" fill="#E62828"/>
<path d="M23.0003 25.3333C23.2603 25.3333 23.5103 25.2333 23.7103 25.0433C24.1003 24.6533 24.1003 24.0233 23.7103 23.6333L22.7103 22.6333C22.3203 22.2433 21.6903 22.2433 21.3003 22.6333C20.9103 23.0233 20.9103 23.6533 21.3003 24.0433L22.3003 25.0433C22.4903 25.2333 22.7403 25.3333 23.0003 25.3333Z" fill="#E62828"/>
</g>
<defs>
<clipPath id="clip0_13957_5585">
<rect width="64" height="64" fill="white"/>
</clipPath>
</defs>
</svg>
