<svg width="244" height="121" viewBox="0 0 244 121" fill="none" xmlns="http://www.w3.org/2000/svg">
<rect x="0.552734" y="0.854492" width="242.553" height="120" rx="8" fill="white" fill-opacity="0.2"/>
<path d="M61.5255 57.2203C63.7304 56.9158 65.7072 57.068 67.9501 57.1442C67.5319 60.1899 67.1517 62.9691 66.7336 65.7864C66.5435 67.2331 66.3534 68.6798 68.2542 69.0986C69.7748 69.4413 70.9913 68.4514 71.3334 66.4717C71.8656 63.426 72.2838 60.3422 72.778 57.1823C74.8688 56.9158 76.7695 56.9919 79.1265 57.1442C78.3281 62.7026 77.5678 68.1088 76.8076 73.553C74.9068 74.0479 73.1581 73.7814 71.5995 73.7814C70.6871 73.4768 71.2574 72.6012 70.6111 72.2586C69.0525 73.553 67.2658 74.4286 65.137 74.3144C62.0958 74.1621 60.0429 72.3347 60.0049 69.289C59.9669 65.2153 60.9933 61.2559 61.5255 57.2203Z" fill="#F2F2F2"/>
<path d="M82.4338 61.0274C81.5595 60.837 81.0273 60.7609 80.419 60.6086C80.1909 59.4284 80.5331 58.3624 80.8372 57.2202C81.5595 57.106 82.2437 56.9537 83.0421 56.8395C83.3082 55.2786 83.5743 53.7557 83.8784 52.0425C85.8932 51.6999 87.87 51.776 89.9988 52.0044C89.8087 53.6796 89.6567 55.1644 89.4666 56.573C90.0748 57.2964 90.8731 56.8395 91.5954 57.2583C91.9756 58.3243 91.4434 59.3903 91.4054 60.304C90.6451 61.0274 89.7327 60.5705 88.8583 61.1416C88.4402 63.4259 87.87 65.8244 87.946 68.1087C88.6303 69.0985 89.5426 68.794 90.2649 69.2127C90.2269 70.7356 90.1509 72.2204 89.6186 73.5529C88.8964 73.9717 88.1741 73.8955 87.4898 73.9717C82.4718 74.3524 80.8372 72.563 81.5595 67.6899C81.8256 65.5198 82.0917 63.3497 82.4338 61.0274Z" fill="#F2F2F2"/>
<path d="M161.011 73.7052C158.844 73.8575 156.829 73.9336 154.662 73.6671C154.7 71.4209 155.118 69.4031 155.536 67.233C157.703 66.9285 159.794 67.1188 162.037 67.1188C161.847 69.4792 161.543 71.5732 161.011 73.7052Z" fill="#F2F2F2"/>
<path d="M154.32 62.7407C153.483 62.5884 152.837 62.4361 151.887 62.2457C152.571 57.5249 153.217 52.8421 153.902 48.0451C151.735 47.6263 149.796 47.9309 147.857 47.8167C146.565 47.7405 145.576 48.1974 144.664 49.1111C141.014 52.8421 137.365 56.497 133.64 60.1518C132.803 60.9894 132.309 61.9031 132.157 63.1214C131.967 64.6062 131.967 66.1671 131.283 67.69C128.356 67.69 125.428 67.69 122.463 67.69C122.425 67.5377 122.387 67.4235 122.349 67.2712C123.946 66.2813 125.58 65.2915 127.177 64.3016C129.116 63.1214 131.093 61.9412 132.613 60.1899C136.339 55.8878 134.78 49.6822 129.458 47.7405C126.113 46.5222 122.729 46.5603 119.422 47.8547C115.544 49.3776 113.15 53.4132 113.758 57.4107C115.887 57.5249 118.053 57.6391 120.106 57.3726C120.448 56.3066 120.6 55.431 120.981 54.6315C121.589 53.337 122.729 52.8421 124.098 52.8802C125.162 52.9182 126.113 53.2609 126.607 54.2888C127.253 55.5832 126.683 56.6112 125.885 57.601C124.63 59.0477 123.109 60.1899 121.551 61.294C119.004 63.0452 116.419 64.7965 114.29 67.0808C112.465 69.0605 111.781 71.3448 112.123 74.086C119.156 74.086 125.961 74.086 132.879 74.086C133.259 72.1824 133.602 70.393 133.944 68.4895C137.175 68.3372 140.292 68.223 143.638 68.5656C143.409 70.4692 143.181 72.2205 142.953 74.086C145.424 74.2763 147.667 74.2763 149.834 74.086C150.67 72.2205 150.328 70.2788 151.126 68.5275C151.925 68.3752 152.723 68.223 153.635 68.0707C153.978 66.3194 154.434 64.5681 154.32 62.7407ZM144.816 62.3219C142.649 62.5503 140.672 62.6265 138.391 62.2838C141.014 59.7711 143.371 57.563 145.918 55.1264C145.576 57.5249 145.196 59.8853 144.816 62.3219Z" fill="#F2F2F2"/>
<path d="M57.2675 69.1748C57.5716 66.7382 58.1799 64.3016 58.2179 61.827C58.2559 59.695 57.3055 58.096 55.3287 57.3346C51.6793 55.964 47.9918 56.0401 44.4184 57.6011C42.6697 58.4006 41.6814 59.8854 41.4533 61.9412C43.5061 62.2077 45.3308 62.0935 47.1175 62.0554C49.3224 59.8854 50.919 59.8854 51.9454 62.0174C51.1851 63.3499 49.7405 63.2737 48.486 63.426C46.4712 63.6544 44.4564 63.8448 42.5937 64.7585C40.3128 65.7864 39.1724 68.1469 39.6666 70.5834C40.0847 72.7535 41.7954 74.1241 44.3424 74.3144C46.3572 74.4667 48.2199 74.0099 49.9686 72.9439C50.1587 72.8297 50.4248 72.7535 50.6529 72.6393C51.0711 72.9819 51.033 73.6672 51.9074 73.8195C53.466 73.8195 55.2907 74.0099 57.4956 73.6292C56.6212 72.0302 57.0774 70.6215 57.2675 69.1748ZM48.372 70.3169C47.4976 70.4311 46.6613 70.355 46.3192 69.3651C45.977 68.3753 46.6233 67.7661 47.4216 67.4235C48.5621 66.9286 49.7785 66.5859 51.0711 66.5479C51.1471 68.7179 50.1207 70.0885 48.372 70.3169Z" fill="#F2F2F2"/>
<path d="M108.018 58.0197C104.597 55.7354 100.795 55.8116 97.1458 57.5248C93.6484 59.1999 92.2418 62.2837 92.2418 64.3776C92.2038 69.8219 93.8765 72.5249 97.0697 73.7051C100.111 74.8092 103.19 74.7711 106.117 73.4386C111.972 70.7356 113.112 61.4461 108.018 58.0197ZM103.418 68.5655C102.734 69.5554 101.746 69.898 100.605 69.6315C99.5407 69.4031 99.0845 68.5655 98.9325 67.5756C98.7044 66.3954 98.8184 65.1771 99.0845 63.9969C99.5787 61.903 100.795 60.7608 102.354 60.9512C103.836 61.1416 104.559 62.3218 104.521 64.6061C104.483 66.0528 104.293 67.3853 103.418 68.5655Z" fill="#F2F2F2"/>
<path d="M203.245 66.9284C204.386 61.5984 201.763 57.5248 196.935 56.6491C190.624 55.4689 185.797 58.6669 184.846 64.568C184.01 69.9361 186.785 73.6671 192.107 74.3143C197.543 74.9615 202.105 72.6391 202.447 69.0224C200.622 69.0224 198.798 69.0224 196.935 69.0224C195.034 70.3929 193.856 70.6594 192.639 69.9361C191.613 69.3269 191.157 68.4132 191.499 66.9665C195.414 66.9284 199.33 66.9284 203.245 66.9284ZM194.806 60.5324C196.441 60.6847 197.239 61.5603 197.125 63.4258C195.338 63.6543 193.628 63.6162 191.917 63.4639C192.031 61.4842 193.133 60.3801 194.806 60.5324Z" fill="#F2F2F2"/>
<path d="M182.831 66.8906C184.085 62.0936 181.652 57.8296 177.281 56.7636C171.122 55.2788 165.914 58.1342 164.66 63.6926C163.481 68.9845 165.762 73.0582 170.514 74.1242C175.76 75.3044 181.614 73.2866 182.185 69.0988C180.322 69.0988 178.459 69.0988 176.444 69.0988C175.342 70.2028 173.897 70.7739 172.263 69.8983C171.236 69.3272 170.818 68.3754 171.198 66.9287C175.152 66.8906 179.029 66.8906 182.831 66.8906ZM174.43 60.5327C176.102 60.6088 176.824 61.5987 176.939 63.4261C175.038 63.6165 173.289 63.6926 171.54 63.388C171.845 61.4083 172.833 60.4185 174.43 60.5327Z" fill="#F2F2F2"/>
</svg>
