<svg width="243" height="121" viewBox="0 0 243 121" fill="none" xmlns="http://www.w3.org/2000/svg">
<rect x="0.106445" y="0.854492" width="242.553" height="120" rx="8" fill="white" fill-opacity="0.2"/>
<path fill-rule="evenodd" clip-rule="evenodd" d="M55.5642 56.5902C55.0114 55.9026 54.4607 55.2992 53.9086 54.954C53.8306 54.8684 53.7519 54.8684 53.6725 54.7814C53.0417 54.439 52.2529 54.1772 51.4676 54.1772C49.809 54.1772 48.551 54.954 47.6012 56.3341C46.5785 57.7991 46.1064 59.6942 46.1064 62.0194C46.1064 64.3482 46.5785 66.157 47.6012 67.6234C48.6282 69 49.8891 69.6897 51.4676 69.6897C52.2529 69.6897 53.0417 69.5171 53.7519 69.0877C53.8299 69 53.8299 69 53.9086 69C54.5379 68.4829 55.1702 67.8809 55.8017 67.0207V69.1719H61.7107V54.6972H55.5642V56.5902ZM55.0915 63.3996C54.8569 63.7441 54.382 63.9159 53.9086 63.9159C53.4351 63.9159 53.0417 63.7448 52.7263 63.3996C52.4116 62.9666 52.2529 62.538 52.2529 61.8475C52.2529 61.2456 52.4124 60.7277 52.7263 60.3847C53.0417 59.9539 53.4344 59.7834 53.9086 59.7834C54.3813 59.7834 54.7761 59.9539 55.0915 60.3847C55.4083 60.7284 55.5642 61.2456 55.5642 61.8475C55.5642 62.538 55.4091 63.0536 55.0915 63.3996Z" fill="#F2F2F2"/>
<path fill-rule="evenodd" clip-rule="evenodd" d="M87.2221 49.8706H80.7603V54.6972H78.9473V60.0379H80.7603V69.1718H87.2221V60.0379H89.0351V54.6972H87.2221V49.8706Z" fill="#F2F2F2"/>
<path fill-rule="evenodd" clip-rule="evenodd" d="M71.5467 61.7639C71.5467 62.796 71.468 63.4849 71.3121 63.7446C71.1534 64.0905 70.9152 64.1754 70.5225 64.1754C70.1285 64.1754 69.8116 64.0035 69.6536 63.7446C69.4998 63.4849 69.4998 62.796 69.4998 61.7639V54.6978H63.1152V62.45C63.1152 65.0348 63.7439 66.8486 64.9239 67.9692C66.1105 69.1724 67.9214 69.6902 70.5225 69.6902C73.0443 69.6902 74.936 69.1724 76.1183 67.9692C77.3027 66.8486 77.8519 65.0348 77.8519 62.45V54.6978H71.5467V61.7639Z" fill="#F2F2F2"/>
<path fill-rule="evenodd" clip-rule="evenodd" d="M99.8159 54.4429C99.8087 54.5587 99.8008 54.6723 99.8008 54.7924C99.8008 58.9889 102.175 62.5842 105.532 64.0823C105.733 63.4012 105.844 62.6806 105.844 61.9326C105.845 58.2669 103.264 55.2059 99.8159 54.4429Z" fill="#F2F2F2"/>
<path fill-rule="evenodd" clip-rule="evenodd" d="M96.4207 54.7497C96.4207 54.6505 96.412 54.5541 96.4055 54.4556C92.9844 55.2409 90.4287 58.286 90.4287 61.9324C90.4287 62.6595 90.537 63.3578 90.7261 64.0238C94.062 62.5121 96.4207 58.9283 96.4207 54.7497Z" fill="#F2F2F2"/>
<path fill-rule="evenodd" clip-rule="evenodd" d="M92.5215 67.185C93.9296 68.6766 95.9216 69.6152 98.1374 69.6152C100.347 69.6152 102.331 68.6853 103.737 67.203C102.179 65.8919 100.232 65.0972 98.1143 65.0972C96.0097 65.0972 94.0761 65.8811 92.5215 67.185Z" fill="#F2F2F2"/>
<path d="M139.133 54.6978H132.669V69.1724H139.133V54.6978Z" fill="#F2F2F2"/>
<path fill-rule="evenodd" clip-rule="evenodd" d="M164.613 60.2121C164.458 60.1258 164.3 60.1258 164.065 60.038C163.038 59.7834 162.564 59.5202 162.564 59.1779C162.564 58.919 162.644 58.7464 162.801 58.5745C163.038 58.4889 163.197 58.4033 163.512 58.4033C163.905 58.4033 164.3 58.4889 164.772 58.7471C165.244 58.919 165.797 59.2642 166.348 59.6943L167.923 55.3848C167.216 54.954 166.426 54.6965 165.56 54.5232C164.694 54.3535 163.83 54.1787 162.884 54.1787C161.068 54.1787 159.492 54.6973 158.388 55.6437C157.203 56.5909 156.656 57.8855 156.656 59.3498C156.656 60.4717 156.889 61.3319 157.442 62.0202C158.075 62.6243 158.941 63.1421 160.201 63.4852C160.357 63.5708 160.518 63.5708 160.834 63.6585C161.54 63.8304 161.936 64.0915 161.936 64.4381C161.936 64.6927 161.857 64.8653 161.7 65.035C161.464 65.2098 161.225 65.2947 160.909 65.2947C160.518 65.2947 159.967 65.1235 159.413 64.8646C158.782 64.6057 158.151 64.1749 157.442 63.6578L155.71 68.1391C156.657 68.6577 157.68 69.087 158.703 69.3474C159.729 69.6056 160.753 69.6897 161.857 69.6897C163.829 69.6897 165.405 69.1719 166.586 68.2254C167.766 67.1919 168.4 65.8132 168.4 64.1749C168.4 63.1407 168.084 62.2798 167.453 61.6757C166.901 60.9874 165.957 60.5559 164.613 60.2121Z" fill="#F2F2F2"/>
<path fill-rule="evenodd" clip-rule="evenodd" d="M149.124 61.7639C149.124 62.796 149.043 63.4849 148.964 63.7446C148.804 64.0905 148.491 64.1754 148.096 64.1754C147.703 64.1754 147.467 64.0035 147.308 63.7446C147.149 63.4849 147.071 62.796 147.071 61.7639V54.6978H140.766V62.45C140.766 65.0348 141.318 66.8486 142.5 67.9692C143.683 69.1724 145.575 69.6902 148.096 69.6902C150.698 69.6902 152.51 69.1724 153.694 67.9692C154.874 66.8486 155.505 65.0348 155.505 62.45V54.6978H149.124V61.7639Z" fill="#F2F2F2"/>
<path fill-rule="evenodd" clip-rule="evenodd" d="M135.898 46.8545C134.87 46.8545 134.003 47.1156 133.373 47.7154C132.748 48.3209 132.429 49.0934 132.429 50.129C132.429 51.1603 132.747 52.0234 133.373 52.629C134.003 53.2316 134.87 53.5747 135.898 53.5747C137 53.5747 137.869 53.2309 138.421 52.629C139.053 52.0234 139.366 51.1603 139.366 50.129C139.366 49.0934 139.053 48.3202 138.499 47.7154C137.87 47.1156 137.001 46.8545 135.898 46.8545Z" fill="#F2F2F2"/>
<path d="M130.792 47.457H124.329V69.1719H130.792V47.457Z" fill="#F2F2F2"/>
<path fill-rule="evenodd" clip-rule="evenodd" d="M117.804 54.1772C116.938 54.1772 116.23 54.439 115.522 54.7814C115.44 54.8684 115.363 54.8684 115.284 54.954C114.731 55.2992 114.179 55.9026 113.629 56.5902V54.6972H107.479V75.4649H113.864V69.6897C113.864 69.2596 113.864 68.7425 113.788 68.3124C113.788 67.9686 113.707 67.5357 113.707 67.1919C114.18 67.9686 114.732 68.5685 115.286 69C115.364 69 115.442 69 115.523 69.0877C116.15 69.5171 116.94 69.6897 117.805 69.6897C119.304 69.6897 120.567 69 121.592 67.5357C122.614 66.157 123.086 64.3482 123.086 62.0194C123.086 59.6942 122.614 57.7991 121.665 56.3341C120.645 54.954 119.383 54.1772 117.804 54.1772ZM116.546 63.4844C116.23 63.8296 115.836 64.0907 115.284 64.0907C114.812 64.0907 114.417 63.8304 114.1 63.4844C113.787 63.0536 113.629 62.538 113.629 61.936C113.629 61.3311 113.787 60.8119 114.1 60.3847C114.416 60.0387 114.811 59.7834 115.284 59.7834C115.836 59.7834 116.23 60.038 116.546 60.3847C116.78 60.8126 116.938 61.3311 116.938 61.936C116.938 62.538 116.78 63.0536 116.546 63.4844Z" fill="#F2F2F2"/>
<path fill-rule="evenodd" clip-rule="evenodd" d="M173.328 62.8486C172.305 62.8486 171.437 63.1061 170.802 63.7074C170.176 64.3122 169.857 65.0875 169.857 66.1224C169.857 67.1545 170.175 68.0161 170.802 68.6195C171.437 69.2251 172.305 69.5681 173.328 69.5681C174.433 69.5681 175.297 69.2243 175.849 68.6195C176.479 68.0161 176.797 67.1545 176.797 66.1224C176.797 65.0875 176.48 64.3115 175.93 63.7074C175.297 63.1068 174.433 62.8486 173.328 62.8486Z" fill="#F2F2F2"/>
<path d="M185.342 47.4185H178.878V69.1362H185.342V47.4185Z" fill="#F2F2F2"/>
<path fill-rule="evenodd" clip-rule="evenodd" d="M195.294 54.7052V49.8765H188.832V54.7052H187.02V60.0467H188.832V69.1805H195.294V60.0467H197.106V54.7052H195.294Z" fill="#F2F2F2"/>
<path fill-rule="evenodd" clip-rule="evenodd" d="M98.6763 54.7926C98.6763 54.6214 98.6914 54.4517 98.6994 54.2834C98.5132 54.2683 98.3269 54.2539 98.1379 54.2539C97.9307 54.2539 97.7257 54.269 97.5215 54.2863C97.5301 54.4395 97.5446 54.5926 97.5446 54.7502C97.5446 59.4415 94.8958 63.4618 91.1484 65.1577C91.3282 65.5446 91.5331 65.9179 91.7735 66.266C93.5266 64.7708 95.7258 63.8739 98.114 63.8739C100.518 63.8739 102.726 64.7823 104.485 66.2869C104.72 65.9467 104.924 65.5849 105.101 65.2088C101.338 63.523 98.6763 59.4983 98.6763 54.7926Z" fill="#F2F2F2"/>
</svg>
