<svg width="244" height="121" viewBox="0 0 244 121" fill="none" xmlns="http://www.w3.org/2000/svg">
<rect x="0.893555" y="0.854492" width="242.553" height="120" rx="8" fill="white" fill-opacity="0.2"/>
<path d="M40.4678 55.2969V65.3602H205.137V55.2969H40.4678Z" fill="#F2F2F2"/>
<path d="M204.137 58.5339H41.4678V22.2798H204.137V58.5339Z" stroke="#F2F2F2" stroke-width="2"/>
<path d="M185.729 99.4289H41.4678V63.1748H204.137V81.272C204.137 91.0541 195.978 99.4289 185.729 99.4289Z" stroke="#F2F2F2" stroke-width="2"/>
<path d="M55.4881 92.3195H55.2033C51.8605 92.3195 48.9824 90.007 48.9824 86.1577C48.9824 83.7892 52.5725 83.7892 52.5725 86.1577C52.5725 87.8212 53.6593 88.7761 55.2033 88.7761H55.4881C57.0321 88.7761 58.2088 87.9779 58.2088 86.4374C58.2088 82.5844 49.1998 82.2114 49.1998 76.5792C49.1998 76.1764 49.1998 76.3293 49.1998 75.9265C49.1998 72.6367 52.5126 70.6636 55.2033 70.6636H55.4881C58.6735 70.6636 61.5216 72.6367 61.5216 75.5908C61.5216 77.8698 57.9615 77.9369 57.9615 75.6841C57.9615 74.8821 56.9721 74.207 55.4881 74.207H55.2033C53.843 74.207 52.7936 74.9493 52.7936 76.1167C52.7936 76.5196 52.7936 76.2137 52.7936 76.5792C52.7936 79.0111 61.7952 80.0928 61.7952 86.4374C61.7952 89.9473 59.0408 92.3195 55.4881 92.3195Z" fill="#F2F2F2"/>
<path d="M71.0512 92.3195H70.7702C67.3674 92.3195 64.583 89.7011 64.583 86.2845V76.6688C64.583 73.2521 67.3674 70.6636 70.7702 70.6636H71.0512C74.1767 70.6636 76.7774 72.7896 77.1784 75.8071C77.2122 75.9041 77.2122 75.9936 77.2122 76.1167C77.2122 77.2245 76.279 77.8437 75.3871 77.8437C74.5776 77.8437 73.8057 77.3476 73.652 76.2995C73.4646 75.035 72.3816 74.207 71.0512 74.207H70.7702C69.3199 74.207 68.1432 75.2514 68.1432 76.6688V86.2845C68.1432 87.728 69.3461 88.7761 70.7702 88.7761H71.0512C72.3816 88.7761 73.4646 87.9406 73.652 86.6799C73.8057 85.6355 74.6076 85.1431 75.3871 85.1431C76.3127 85.1431 77.2122 85.7623 77.2122 86.8701C77.2122 86.9932 77.2122 87.0827 77.2122 87.2058C76.7437 90.1636 74.1767 92.3195 71.0512 92.3195Z" fill="#F2F2F2"/>
<path d="M88.8483 76.7023C88.8483 75.2514 87.7016 74.207 86.2475 74.207H85.9665C84.5162 74.207 83.3694 75.285 83.3694 76.7023V86.2509C83.3694 87.7019 84.5424 88.7761 85.9665 88.7761H86.2475C87.7016 88.7761 88.8483 87.7019 88.8483 86.2845V76.7023ZM86.2475 92.3195H85.9665C82.56 92.3195 79.7793 89.6713 79.7793 86.2845V76.7023C79.7793 73.282 82.56 70.6636 85.9665 70.6636H86.2475C89.6802 70.6636 92.4384 73.282 92.4384 76.7023V86.2509C92.4384 89.6713 89.6802 92.3195 86.2475 92.3195Z" fill="#F2F2F2"/>
<path d="M102.586 92.3195H102.309C98.9063 92.3195 96.1182 89.5519 96.1182 86.1577V72.4502C96.1182 71.2454 97.0176 70.6636 97.917 70.6636C98.8126 70.6636 99.712 71.2454 99.712 72.4502V86.1577C99.712 87.5751 100.885 88.7761 102.309 88.7761H102.586C104.044 88.7761 105.221 87.6049 105.221 86.1577V72.4502C105.221 71.2454 106.117 70.6636 107.016 70.6636C107.915 70.6636 108.807 71.2454 108.807 72.4502V86.1577C108.807 89.5519 106.027 92.3195 102.586 92.3195Z" fill="#F2F2F2"/>
<path d="M121.497 74.3898H119.024V90.5366C119.024 91.7377 118.124 92.3195 117.225 92.3195C116.333 92.3195 115.433 91.7377 115.433 90.5366V74.3898H112.96C111.783 74.3898 111.165 73.4983 111.165 72.6032C111.165 71.7415 111.783 70.8501 112.96 70.8501H121.497C122.707 70.8501 123.296 71.7415 123.296 72.6032C123.296 73.4983 122.707 74.3898 121.497 74.3898Z" fill="#F2F2F2"/>
<path d="M138.218 92.133H130.165C129.022 92.133 128.344 91.0588 128.344 90.007C128.344 89.6116 128.404 89.2386 128.617 88.9029L135.648 77.6311C136.015 77.0082 136.015 76.6688 136.015 76.2137V75.9601C136.015 75.0351 135.213 74.207 134.16 74.207H134.066C133.047 74.207 132.275 75.009 132.275 75.9601V76.2995C132.275 77.4707 131.375 78.0563 130.476 78.0563C129.58 78.0563 128.681 77.4707 128.681 76.2995V75.8407C128.681 72.8493 131.124 70.6636 134.066 70.6636H134.16C137.064 70.6636 139.605 72.8195 139.605 75.8407L139.575 76.1764C139.575 77.3476 139.144 78.3062 138.488 79.3767L132.83 88.5896H138.218C139.421 88.5896 140.01 89.4848 140.01 90.3501C140.01 91.2379 139.421 92.133 138.218 92.133Z" fill="#F2F2F2"/>
<path d="M152.353 87.9145H151.675V90.5366C151.675 91.7377 150.776 92.3195 149.88 92.3195C148.981 92.3195 148.089 91.7377 148.089 90.5366V87.9145H143.224C141.988 87.9145 141.216 87.2394 141.216 86.0346C141.216 85.7287 141.276 85.3259 141.396 85.0462L147.189 71.7415C147.53 70.9694 148.149 70.6636 148.767 70.6636C149.693 70.6636 150.622 71.3723 150.622 72.3868C150.622 72.6367 150.592 72.8792 150.472 73.1589L145.361 84.371H148.089V82.5844C148.089 81.4132 148.981 80.7941 149.88 80.7941C150.776 80.7941 151.675 81.3834 151.675 82.5844V84.371H152.353C153.564 84.371 154.148 85.2327 154.148 86.1278C154.148 87.023 153.564 87.9145 152.353 87.9145Z" fill="#F2F2F2"/>
<path d="M57.3128 36.5164L55.3641 43.0177H59.2616L57.3128 36.5164ZM63.1627 51.5518C62.4807 51.5518 61.7687 51.1788 61.5213 50.2836L60.3746 46.5611H54.2511L53.1006 50.2836C52.8271 51.1788 52.115 51.5518 51.4292 51.5518C50.5036 51.5518 49.5742 50.8729 49.5742 49.8211C49.5742 49.642 49.5742 49.4555 49.6679 49.2392L55.3304 31.4027C55.7651 30.0152 56.5409 29.8921 57.3128 29.8921C58.0511 29.8921 58.8306 30.0152 59.2953 31.4027L64.9241 49.2392C64.9915 49.4555 65.0177 49.642 65.0177 49.8211C65.0177 50.8729 64.0921 51.5518 63.1627 51.5518Z" fill="white"/>
<path d="M74.0307 51.5518H73.7534C70.3507 51.5518 67.5625 48.773 67.5625 45.3899V31.6825C67.5625 30.4777 68.4619 29.8921 69.3576 29.8921C70.257 29.8921 71.1526 30.4777 71.1526 31.6825V45.3899C71.1526 46.8073 72.3293 48.0083 73.7534 48.0083H74.0307C75.4885 48.0083 76.6615 46.8334 76.6615 45.3899V31.6825C76.6615 30.4777 77.5609 29.8921 78.4603 29.8921C79.3522 29.8921 80.2516 30.4777 80.2516 31.6825V45.3899C80.2516 48.773 77.4634 51.5518 74.0307 51.5518Z" fill="white"/>
<path d="M93.2251 33.622H90.7443V49.7614C90.7443 50.9662 89.8449 51.5518 88.953 51.5518C88.0536 51.5518 87.1542 50.9662 87.1542 49.7614V33.622H84.6808C83.5041 33.622 82.8857 32.7269 82.8857 31.8354C82.8857 30.9738 83.5041 30.0786 84.6808 30.0786H93.2251C94.4281 30.0786 95.0164 30.9738 95.0164 31.8354C95.0164 32.7269 94.4281 33.622 93.2251 33.622Z" fill="white"/>
<path d="M106.233 35.9346C106.233 34.4836 105.09 33.4355 103.632 33.4355H103.355C101.897 33.4355 100.758 34.5172 100.758 35.9346V45.4832C100.758 46.9266 101.931 48.0083 103.355 48.0083H103.632C105.09 48.0083 106.233 46.9266 106.233 45.5093V35.9346ZM103.632 51.5518H103.355C99.9485 51.5518 97.1641 48.8998 97.1641 45.5093V35.9346C97.1641 32.5105 99.9485 29.8921 103.355 29.8921H103.632C107.069 29.8921 109.827 32.5105 109.827 35.9346V45.4832C109.827 48.8998 107.069 51.5518 103.632 51.5518Z" fill="white"/>
</svg>
