<svg width="22" height="23" viewBox="0 0 22 23" fill="none" xmlns="http://www.w3.org/2000/svg">
<path fill-rule="evenodd" clip-rule="evenodd" d="M10.8824 2.33207C10.816 2.279 10.7335 2.25009 10.6484 2.25009C10.5634 2.25009 10.4809 2.279 10.4144 2.33207L2.53944 8.63207C2.49532 8.66729 2.45973 8.71203 2.43531 8.76293C2.4109 8.81384 2.39829 8.86961 2.39844 8.92607V19.4546C2.39844 19.6616 2.56644 19.8296 2.77344 19.8296H6.89844V11.9546C6.89844 11.6562 7.01697 11.37 7.22794 11.1591C7.43892 10.9481 7.72507 10.8296 8.02344 10.8296H13.2734C13.5718 10.8296 13.858 10.9481 14.0689 11.1591C14.2799 11.37 14.3984 11.6562 14.3984 11.9546V19.8296H18.5234C18.6229 19.8296 18.7183 19.7901 18.7886 19.7198C18.859 19.6494 18.8984 19.554 18.8984 19.4546V8.92457C18.8983 8.86836 18.8857 8.81289 18.8612 8.76225C18.8368 8.71163 18.8014 8.66714 18.7574 8.63207L10.8824 2.33207ZM9.00744 0.575559C9.47295 0.202989 10.0514 0 10.6477 0C11.2439 0 11.8224 0.202989 12.2879 0.575559L20.1629 6.87557C20.7854 7.37355 21.1484 8.12807 21.1484 8.92607V19.4546C21.1484 20.1507 20.8718 20.8184 20.3795 21.3107C19.8872 21.803 19.2196 22.0796 18.5234 22.0796H13.2734C12.9751 22.0796 12.6889 21.9611 12.4779 21.75C12.267 21.5391 12.1484 21.2529 12.1484 20.9546V13.0796H9.14844V20.9546C9.14844 21.2529 9.02991 21.5391 8.81893 21.75C8.60796 21.9611 8.3218 22.0796 8.02344 22.0796H2.77344C2.07724 22.0796 1.40956 21.803 0.917278 21.3107C0.424993 20.8184 0.148438 20.1507 0.148438 19.4546V8.92457C0.148438 8.12807 0.511437 7.37355 1.13394 6.87557L9.00894 0.575559H9.00744Z" fill="#24292E"/>
</svg>
