<svg width="24" height="24" viewBox="0 0 24 24" fill="none" xmlns="http://www.w3.org/2000/svg">
<circle cx="12" cy="12" r="9" fill="#FDFDFE"/>
<path d="M15.5772 6.38477H8.42415C7.28241 6.38477 6.35352 7.31366 6.35352 8.4554V15.6085C6.35352 16.7502 7.28241 17.6794 8.42415 17.6794H15.5772C16.719 17.6794 17.6482 16.7505 17.6482 15.6085V8.4554C17.6482 7.31366 16.7193 6.38477 15.5772 6.38477ZM12.0007 15.7502C9.95065 15.7502 8.2827 14.0823 8.2827 12.032C8.2827 9.98191 9.95065 8.31395 12.0007 8.31395C14.051 8.31395 15.719 9.98191 15.719 12.032C15.719 14.082 14.0507 15.7502 12.0007 15.7502ZM15.8385 9.08269C15.3532 9.08269 14.9585 8.68803 14.9585 8.20299C14.9585 7.71795 15.3532 7.32329 15.8385 7.32329C16.3235 7.32329 16.7182 7.71795 16.7182 8.20299C16.7182 8.68803 16.3235 9.08269 15.8385 9.08269Z" fill="url(#paint0_linear_13931_5337)"/>
<path d="M11.9996 9.88574C10.8162 9.88574 9.85254 10.8489 9.85254 12.0323C9.85254 13.2163 10.8162 14.1797 11.9996 14.1797C13.1836 14.1797 14.1465 13.2163 14.1465 12.0323C14.1465 10.8491 13.1834 9.88574 11.9996 9.88574Z" fill="#E84147"/>
<path d="M12 0C5.37285 0 0 5.37285 0 12C0 18.6272 5.37285 24 12 24C18.6272 24 24 18.6272 24 12C24 5.37285 18.6272 0 12 0ZM19.2183 15.6089C19.2183 17.6172 17.5849 19.2507 15.5766 19.2507H8.42345C6.41538 19.2507 4.78166 17.6172 4.78166 15.6089V8.4558C4.78166 6.44774 6.41538 4.81401 8.42345 4.81401H15.5766C17.5849 4.81401 19.2183 6.44774 19.2183 8.4558V15.6089Z" fill="url(#paint1_radial_13931_5337)"/>
<defs>
<linearGradient id="paint0_linear_13931_5337" x1="7.50098" y1="17.9996" x2="17.001" y2="5.99963" gradientUnits="userSpaceOnUse">
<stop stop-color="#E18129"/>
<stop offset="0.271436" stop-color="#F7591A"/>
<stop offset="0.953125" stop-color="#C106AF"/>
</linearGradient>
<radialGradient id="paint1_radial_13931_5337" cx="0" cy="0" r="1" gradientUnits="userSpaceOnUse" gradientTransform="translate(7 20.5) rotate(-48.8141) scale(21.2603)">
<stop stop-color="#F5DF82"/>
<stop offset="0.258556" stop-color="#DE7627"/>
<stop offset="0.489576" stop-color="#D50453"/>
<stop offset="0.716605" stop-color="#C301A5"/>
<stop offset="0.979167" stop-color="#3333E8"/>
</radialGradient>
</defs>
</svg>
