<svg width="14" height="18" viewBox="0 0 14 18" fill="none" xmlns="http://www.w3.org/2000/svg">
<path d="M7.00036 0C3.40581 0 0.481445 2.92437 0.481445 6.51888C0.481445 10.9798 6.31524 17.5287 6.56362 17.8053C6.79691 18.0651 7.20423 18.0647 7.43711 17.8053C7.68549 17.5287 13.5193 10.9798 13.5193 6.51888C13.5192 2.92437 10.5949 0 7.00036 0ZM7.00036 9.79871C5.19186 9.79871 3.72057 8.32739 3.72057 6.51888C3.72057 4.71037 5.19189 3.23909 7.00036 3.23909C8.80884 3.23909 10.2801 4.71041 10.2801 6.51892C10.2801 8.32743 8.80884 9.79871 7.00036 9.79871Z" fill="#E62828"/>
</svg>
