<svg width="190" height="74" viewBox="0 0 190 74" fill="none" xmlns="http://www.w3.org/2000/svg">
<path d="M0 0H190V64C190 69.5229 185.523 74 180 74H10C4.47715 74 0 69.5229 0 64V0Z" fill="#E62828"/>
<path d="M44.9502 28.1416H40.1895L40.1641 25.2217H44.0234C44.7174 25.2217 45.2718 25.1455 45.6865 24.9932C46.1012 24.8324 46.4017 24.5996 46.5879 24.2949C46.7826 23.9902 46.8799 23.6094 46.8799 23.1523C46.8799 22.6276 46.7826 22.2044 46.5879 21.8828C46.3932 21.5612 46.0843 21.3285 45.6611 21.1846C45.2464 21.0322 44.709 20.9561 44.0488 20.9561H41.8652V36H37.4092V17.5156H44.0488C45.1914 17.5156 46.2113 17.6214 47.1084 17.833C48.0055 18.0361 48.7673 18.3493 49.3936 18.7725C50.0283 19.1956 50.5107 19.7288 50.8408 20.3721C51.1709 21.0068 51.3359 21.7559 51.3359 22.6191C51.3359 23.3724 51.1751 24.0791 50.8535 24.7393C50.5319 25.3994 49.9945 25.9368 49.2412 26.3516C48.4964 26.7578 47.4766 26.9694 46.1816 26.9863L44.9502 28.1416ZM44.7725 36H39.1104L40.6338 32.5723H44.7725C45.3818 32.5723 45.8685 32.4792 46.2324 32.293C46.6048 32.0983 46.8714 31.8444 47.0322 31.5312C47.2015 31.2096 47.2861 30.8542 47.2861 30.4648C47.2861 29.9909 47.2057 29.5804 47.0449 29.2334C46.8926 28.8864 46.6471 28.6198 46.3086 28.4336C45.9701 28.2389 45.5173 28.1416 44.9502 28.1416H41.2051L41.2305 25.2217H45.7119L46.7529 26.3896C47.9886 26.3389 48.9661 26.5124 49.6855 26.9102C50.4134 27.3079 50.9339 27.8327 51.2471 28.4844C51.5602 29.1361 51.7168 29.8174 51.7168 30.5283C51.7168 31.7386 51.4544 32.75 50.9297 33.5625C50.4134 34.375 49.639 34.9844 48.6064 35.3906C47.5739 35.7969 46.2959 36 44.7725 36ZM61.6984 29.7285H57.1027V26.2881H61.6984C62.3247 26.2881 62.8325 26.1823 63.2218 25.9707C63.6111 25.7591 63.8946 25.4671 64.0724 25.0947C64.2586 24.7139 64.3517 24.2865 64.3517 23.8125C64.3517 23.3047 64.2586 22.835 64.0724 22.4033C63.8946 21.9717 63.6111 21.6247 63.2218 21.3623C62.8325 21.0915 62.3247 20.9561 61.6984 20.9561H58.7784V36H54.3224V17.5156H61.6984C63.1795 17.5156 64.4532 17.7865 65.5196 18.3281C66.5945 18.8698 67.4197 19.6146 67.9952 20.5625C68.5708 21.502 68.8585 22.5768 68.8585 23.7871C68.8585 24.9805 68.5708 26.0215 67.9952 26.9102C67.4197 27.7988 66.5945 28.4928 65.5196 28.9922C64.4532 29.4831 63.1795 29.7285 61.6984 29.7285ZM85.8255 21.4004L81.3187 36H76.5326L83.3246 17.5156H86.3587L85.8255 21.4004ZM89.558 36L85.0384 21.4004L84.4545 17.5156H87.5267L94.3568 36H89.558ZM89.3802 29.1064V32.5469H79.8968V29.1064H89.3802ZM105.646 17.5156H110.102V29.5889C110.102 31.0277 109.802 32.2464 109.201 33.2451C108.6 34.2354 107.758 34.9844 106.674 35.4922C105.591 36 104.317 36.2539 102.853 36.2539C101.406 36.2539 100.132 36 99.0317 35.4922C97.9399 34.9844 97.0851 34.2354 96.4673 33.2451C95.8579 32.2464 95.5532 31.0277 95.5532 29.5889V17.5156H100.022V29.5889C100.022 30.3506 100.132 30.9727 100.352 31.4551C100.572 31.929 100.894 32.276 101.317 32.4961C101.74 32.7161 102.252 32.8262 102.853 32.8262C103.462 32.8262 103.974 32.7161 104.389 32.4961C104.804 32.276 105.117 31.929 105.329 31.4551C105.54 30.9727 105.646 30.3506 105.646 29.5889V17.5156ZM121.988 17.5156V36H117.532V17.5156H121.988ZM127.548 17.5156V20.9561H112.098V17.5156H127.548ZM144.855 26.3896V27.1387C144.855 28.5521 144.656 29.8216 144.259 30.9473C143.869 32.0645 143.315 33.0208 142.595 33.8164C141.876 34.6035 141.025 35.2087 140.044 35.6318C139.062 36.0465 137.979 36.2539 136.794 36.2539C135.6 36.2539 134.509 36.0465 133.518 35.6318C132.537 35.2087 131.682 34.6035 130.954 33.8164C130.234 33.0208 129.676 32.0645 129.278 30.9473C128.889 29.8216 128.694 28.5521 128.694 27.1387V26.3896C128.694 24.9762 128.889 23.7067 129.278 22.5811C129.676 21.4554 130.23 20.499 130.941 19.7119C131.661 18.9163 132.511 18.3112 133.493 17.8965C134.483 17.4733 135.575 17.2617 136.768 17.2617C137.953 17.2617 139.037 17.4733 140.018 17.8965C141.009 18.3112 141.863 18.9163 142.583 19.7119C143.302 20.499 143.861 21.4554 144.259 22.5811C144.656 23.7067 144.855 24.9762 144.855 26.3896ZM140.336 27.1387V26.3643C140.336 25.4502 140.255 24.6462 140.094 23.9521C139.942 23.2497 139.714 22.6615 139.409 22.1875C139.104 21.7135 138.728 21.3581 138.279 21.1211C137.839 20.8757 137.335 20.7529 136.768 20.7529C136.176 20.7529 135.66 20.8757 135.219 21.1211C134.779 21.3581 134.411 21.7135 134.115 22.1875C133.819 22.6615 133.594 23.2497 133.442 23.9521C133.298 24.6462 133.226 25.4502 133.226 26.3643V27.1387C133.226 28.0443 133.298 28.8483 133.442 29.5508C133.594 30.2448 133.819 30.833 134.115 31.3154C134.42 31.7979 134.792 32.1618 135.232 32.4072C135.681 32.6527 136.201 32.7754 136.794 32.7754C137.361 32.7754 137.864 32.6527 138.304 32.4072C138.745 32.1618 139.113 31.7979 139.409 31.3154C139.714 30.833 139.942 30.2448 140.094 29.5508C140.255 28.8483 140.336 28.0443 140.336 27.1387Z" fill="white"/>
<circle cx="150" cy="34" r="2" fill="#2B454E"/>
</svg>
