<svg width="243" height="121" viewBox="0 0 243 121" fill="none" xmlns="http://www.w3.org/2000/svg">
<rect x="0.447266" y="0.854492" width="242.553" height="120" rx="8" fill="white" fill-opacity="0.2"/>
<path d="M190.055 78.1701C143.975 78.1701 97.9065 78.1701 51.8264 78.1701C51.6852 78.1118 51.5558 78.0302 51.4147 77.9952C48.3678 77.156 46.4855 74.8366 46.4737 71.7014C46.4384 64.242 46.4384 56.7942 46.4737 49.3348C46.4855 46.5958 47.8148 44.6028 50.3088 43.4139C50.8265 43.1692 51.4029 43.041 51.944 42.8545C97.977 42.8545 144.022 42.8545 190.055 42.8545C190.114 42.8895 190.172 42.9477 190.243 42.9594C193.455 43.6587 195.513 46.048 195.525 49.3232C195.56 56.8175 195.56 64.3119 195.525 71.8063C195.513 74.8716 193.525 77.2143 190.525 77.9952C190.361 78.0302 190.219 78.1118 190.055 78.1701ZM48.3207 49.16C48.3207 52.7149 48.3089 56.2581 48.3089 59.813C48.3089 63.834 48.3207 67.8435 48.3207 71.8645C48.4972 74.4287 50.403 76.2702 53.0028 76.2936C56.5673 76.3285 60.1201 76.3052 63.6846 76.2936C63.8964 76.2936 64.0964 76.2236 64.3081 76.177C64.5669 76.177 64.814 76.1887 65.0728 76.1887C106.153 76.1887 147.222 76.1887 188.302 76.1887C188.514 76.1887 188.737 76.1887 188.949 76.1887C191.619 76.1537 193.549 74.3122 193.549 71.6781C193.572 64.242 193.56 56.7942 193.56 49.3582C193.56 48.2276 193.208 47.2136 192.443 46.3744C191.408 45.2205 190.078 44.8242 188.549 44.8242C147.351 44.8359 106.153 44.8359 64.9552 44.8359C64.7434 44.8359 64.5199 44.8475 64.3081 44.8475C60.5083 44.8475 56.7085 44.8242 52.8969 44.8359C50.3088 44.8359 48.4972 46.5725 48.3207 49.16Z" fill="#F2F2F2"/>
<path d="M64.3205 44.8475C64.3205 54.0552 64.3205 63.2513 64.3087 72.459C64.3087 73.7061 64.3087 74.9415 64.3087 76.1886C64.097 76.2236 63.897 76.3052 63.6852 76.3052C60.1207 76.3169 56.5679 76.3285 53.0034 76.3052C50.4035 76.2819 48.4978 74.4404 48.3213 71.8762C48.3566 71.6081 48.4154 71.34 48.4154 71.072C48.4154 64.0438 48.4154 57.0157 48.4154 49.9759C48.4154 49.7078 48.3566 49.4397 48.3213 49.1717C48.4978 46.5725 50.3094 44.8359 52.9093 44.8359C56.7091 44.8242 60.5089 44.8359 64.3205 44.8475Z" fill="#F2F2F2"/>
<path d="M48.3213 49.1602C48.3566 49.4282 48.4154 49.6963 48.4154 49.9644C48.4154 56.9925 48.4154 64.0207 48.4154 71.0605C48.4154 71.3285 48.3566 71.5966 48.3213 71.8647C48.3213 67.8436 48.3096 63.8342 48.3096 59.8131C48.2978 56.2582 48.3096 52.715 48.3213 49.1602Z" fill="#F2F2F2"/>
<path d="M81.0613 69.9648C79.6379 69.9648 78.2968 69.9648 76.8968 69.9648C76.8968 69.7084 76.8968 69.4753 76.8968 69.2538C76.8968 65.8738 76.8968 62.4938 76.8968 59.1137C76.8968 58.8457 76.8968 58.5659 76.8851 58.2979C76.8263 57.3305 76.438 56.7943 75.6969 56.6311C74.7911 56.4447 73.8382 56.7943 73.497 57.5869C73.2617 58.1463 73.1206 58.7757 73.1206 59.3818C73.0853 62.6686 73.1088 65.9437 73.097 69.2305C73.097 69.4636 73.097 69.6851 73.097 69.9532C71.6971 69.9532 70.356 69.9532 68.9561 69.9532C68.9561 64.6034 68.9561 59.2536 68.9561 53.8572C70.1913 53.8572 71.4265 53.8572 72.7206 53.8572C72.7206 54.3467 72.7206 54.8246 72.7206 55.3024C72.7559 55.3374 72.7912 55.3724 72.8265 55.4073C73.8617 53.997 75.2381 53.3094 76.9557 53.356C78.7085 53.4026 80.0614 54.067 80.6966 55.8036C80.7555 55.7687 80.8025 55.7687 80.8261 55.7337C81.9789 53.6008 84.5788 52.7033 86.814 53.7057C88.4139 54.4166 88.908 55.8386 88.9904 57.4237C89.0609 58.834 89.0256 60.2559 89.0256 61.6779C89.0256 64.1488 89.0256 66.6081 89.0256 69.079C89.0256 69.2888 89.0256 69.4986 89.0256 69.7434C87.6257 69.7434 86.2964 69.7434 84.8729 69.7434C84.8729 69.4986 84.8729 69.2771 84.8729 69.044C84.8729 65.699 84.8729 62.3656 84.8729 59.0205C84.8729 58.7291 84.8729 58.4377 84.8376 58.1463C84.7082 57.1789 84.3318 56.7244 83.5906 56.6078C82.6613 56.4563 81.7437 56.8293 81.4378 57.6452C81.2025 58.2629 81.0966 58.9622 81.0849 59.6266C81.0496 62.8085 81.0731 66.002 81.0731 69.1839C81.0613 69.4403 81.0613 69.6851 81.0613 69.9648Z" fill="#F2F2F2"/>
<path d="M131.022 48.5537C132.387 48.5537 133.705 48.5537 135.081 48.5537C135.081 55.6401 135.081 62.7266 135.081 69.8596C133.74 69.8596 132.399 69.8596 131.022 69.8596C131.022 62.7732 131.022 55.7101 131.022 48.5537Z" fill="#F2F2F2"/>
<path d="M123.047 53.8452C124.423 53.8452 125.753 53.8452 127.117 53.8452C127.117 59.1833 127.117 64.4982 127.117 69.8596C125.776 69.8596 124.435 69.8596 123.047 69.8596C123.047 64.5331 123.047 59.2067 123.047 53.8452Z" fill="#F2F2F2"/>
<path d="M157.845 67.5637C157.845 68.1815 157.833 68.7992 157.845 69.4286C157.857 69.7666 157.727 69.9064 157.363 69.9064C156.127 69.8948 154.892 69.8948 153.669 69.9064C153.339 69.9064 153.222 69.7782 153.222 69.4635C153.233 68.2048 153.233 66.946 153.222 65.6872C153.222 65.3725 153.328 65.2327 153.657 65.2443C154.904 65.256 156.163 65.2327 157.41 65.2676C157.551 65.2676 157.798 65.5124 157.81 65.6639C157.88 66.2816 157.845 66.9227 157.845 67.5637Z" fill="#F2F2F2"/>
<path d="M123.035 48.2744C124.423 48.2744 125.753 48.2744 127.117 48.2744C127.117 49.4633 127.117 50.6171 127.117 51.806C125.753 51.806 124.412 51.806 123.035 51.806C123.035 50.6288 123.035 49.4633 123.035 48.2744Z" fill="#F2F2F2"/>
<path d="M119.754 59.8595C119.659 58.3793 119.389 56.9457 118.765 55.5704C117.624 53.0762 113.448 52.4817 111.73 54.8128C111.636 54.941 111.519 55.0459 111.307 55.279C111.307 52.9479 111.307 50.7801 111.307 48.5889C109.895 48.5889 108.542 48.5889 107.178 48.5889C107.178 55.6753 107.178 62.7151 107.178 69.7782C108.472 69.7782 109.707 69.7782 111.013 69.7782C111.013 69.2537 111.013 68.7525 111.013 68.263C111.06 68.2514 111.107 68.2281 111.142 68.2164C111.272 68.3796 111.401 68.5544 111.53 68.7176C112.072 69.4052 112.754 69.9297 113.624 70.1279C116.424 70.7456 118.424 69.5917 119.224 66.8644C119.907 64.5683 119.907 62.2139 119.754 59.8595ZM115.342 65.4308C115.248 66.0485 114.954 66.6196 114.33 66.9227C113.33 67.4238 112.107 67.0159 111.801 65.9086C111.06 63.1813 111.072 60.419 111.801 57.6917C112.025 56.8641 112.683 56.4912 113.483 56.5028C114.319 56.5028 114.989 56.8874 115.177 57.7616C115.471 59.1019 115.589 60.4656 115.754 61.6312C115.613 63.0531 115.518 64.2419 115.342 65.4308Z" fill="#F2F2F2"/>
<path d="M169.551 48.5654C169.551 50.7799 169.551 52.9711 169.551 55.1507C169.504 55.1623 169.469 55.1856 169.422 55.1973C169.292 55.0458 169.175 54.8593 169.01 54.7427C168.469 54.3465 167.951 53.8336 167.34 53.6005C164.869 52.6797 162.457 53.9502 161.599 56.5493C160.987 58.3792 160.94 60.2907 160.952 62.1905C160.975 63.997 161.093 65.8036 161.787 67.5053C162.422 69.0554 163.516 70.0228 165.222 70.221C166.975 70.4191 168.434 69.9179 169.445 68.4027C169.492 68.3328 169.551 68.2745 169.728 68.0764C169.728 68.7408 169.728 69.2536 169.728 69.7664C171.092 69.7664 172.375 69.7664 173.669 69.7664C173.669 62.68 173.669 55.6402 173.669 48.5771C172.304 48.5654 170.963 48.5654 169.551 48.5654ZM168.963 65.9435C168.739 66.771 168.104 67.109 167.257 67.0974C166.434 67.0857 165.846 66.7477 165.598 65.8852C165.363 65.0926 165.257 64.2535 165.163 63.4376C165.104 62.9014 165.151 62.3536 165.151 61.8059C165.116 61.8059 165.081 61.8059 165.046 61.7942C165.151 60.6753 165.234 59.5564 165.375 58.4375C165.422 58.0762 165.563 57.7265 165.728 57.4001C166.057 56.7474 166.645 56.4677 167.375 56.491C168.163 56.5143 168.775 56.9106 168.963 57.6566C169.692 60.4305 169.692 63.2045 168.963 65.9435Z" fill="#F2F2F2"/>
<path d="M103.778 56.8294C103.249 55.0228 101.978 53.8573 100.084 53.5659C99.0489 53.4028 97.9784 53.3561 96.9313 53.4494C94.3197 53.6825 92.6963 55.0345 92.0845 57.552C91.7434 58.9507 91.6375 60.4192 91.4375 61.8528C91.4846 61.8645 91.5316 61.8645 91.5904 61.8762C91.5787 63.5312 91.6845 65.1746 92.2139 66.7597C92.8257 68.5896 94.0844 69.7668 96.0137 70.0815C96.9902 70.233 98.0136 70.2796 99.0018 70.198C101.519 69.9999 103.225 68.6945 103.884 66.2586C104.707 63.1233 104.696 59.953 103.778 56.8294ZM99.943 65.5592C99.8724 65.8972 99.7547 66.2352 99.5783 66.5383C98.896 67.7854 97.0843 67.8437 96.4137 66.5849C96.0843 65.9672 95.9432 65.2329 95.849 64.5336C95.7314 63.6361 95.7432 62.7153 95.6843 61.5032C95.7549 60.6174 95.802 59.4285 95.9785 58.263C96.1079 57.3656 96.4255 56.5147 97.4607 56.2233C98.4136 55.9669 99.2606 56.3049 99.6489 57.214C99.8841 57.7618 100.037 58.3563 100.108 58.9507C100.343 61.1535 100.39 63.368 99.943 65.5592Z" fill="#F2F2F2"/>
<path d="M188.831 62.435C189.102 61.0364 188.773 57.9943 188.243 56.5957C187.584 54.8591 186.337 53.8217 184.514 53.5187C183.808 53.4021 183.067 53.3555 182.349 53.4021C179.408 53.577 177.644 54.8008 176.961 57.33C176.138 60.3953 176.161 63.5189 176.985 66.5959C177.538 68.6356 178.997 69.7895 181.079 70.1275C181.879 70.2557 182.726 70.2907 183.538 70.2441C186.737 70.0576 188.867 67.61 188.596 64.4747C187.373 64.4747 186.149 64.4747 184.926 64.4747C184.761 65.1157 184.632 65.7684 184.408 66.3745C184.161 67.0505 183.655 67.4351 182.902 67.4818C182.138 67.5284 181.561 67.2253 181.208 66.5726C180.502 65.2906 180.608 63.8919 180.632 62.4583C183.42 62.435 186.137 62.435 188.831 62.435ZM181.055 57.1785C181.455 56.4325 182.102 56.1062 182.949 56.1644C183.796 56.2227 184.361 56.6656 184.549 57.4698C184.738 58.2741 184.808 59.1016 184.938 59.9757C183.432 59.9757 182.055 59.9757 180.632 59.9757C180.573 58.985 180.597 58.0526 181.055 57.1785Z" fill="#F2F2F2"/>
<path d="M150.328 62.3305C150.352 60.3258 150.352 58.391 149.681 56.5262C149.046 54.7895 147.823 53.6939 145.976 53.4375C144.999 53.2977 143.976 53.2627 142.999 53.3792C140.623 53.6473 138.988 54.9294 138.388 57.2488C137.588 60.3491 137.6 63.4844 138.458 66.573C138.917 68.2164 140.035 69.3237 141.705 69.8132C143.282 70.2794 144.882 70.3027 146.458 69.8598C148.74 69.2188 150.446 66.5264 149.987 64.3352C148.787 64.3352 147.576 64.3352 146.34 64.3352C146.223 64.883 146.129 65.4192 145.976 65.932C145.682 66.8994 145.14 67.3306 144.282 67.3656C143.411 67.4006 142.811 66.981 142.435 66.0369C141.964 64.8714 142.035 63.6476 142.058 62.3189C144.846 62.3305 147.564 62.3305 150.328 62.3305ZM142.752 56.701C143.635 55.6404 145.482 55.9201 145.905 57.2138C146.176 58.0414 146.223 58.9388 146.376 59.8712C144.858 59.8712 143.494 59.8712 142.058 59.8712C141.999 58.7523 141.976 57.6334 142.752 56.701Z" fill="#F2F2F2"/>
</svg>
