<svg width="56" height="16" viewBox="0 0 56 16" fill="none" xmlns="http://www.w3.org/2000/svg">
<path d="M7.99998 16C12.4183 16 16 12.4183 16 7.99998C16 3.58171 12.4183 0 7.99998 0C3.58171 0 0 3.58171 0 7.99998C0 12.4183 3.58171 16 7.99998 16Z" fill="#41B4E6"/>
<path d="M10.7991 13.03H5.2001C3.96831 13.03 2.96973 12.0314 2.96973 10.7996V5.20059C2.96973 3.96879 3.96828 2.97021 5.2001 2.97021H10.7991C12.0309 2.97021 13.0295 3.96876 13.0295 5.20059V10.7996C13.0295 12.0314 12.0309 13.03 10.7991 13.03Z" fill="#6E64C3"/>
<path d="M7.30279 7.10699C7.37988 7.05037 7.43117 6.96534 7.44535 6.87072C7.45954 6.77612 7.43535 6.67978 7.37823 6.6031L6.99936 6.09407C6.95489 6.03432 6.8882 5.99514 6.81439 5.98532C6.74058 5.97551 6.66586 5.99586 6.60736 6.04189C6.53752 6.09685 6.4593 6.15823 6.3853 6.21585C6.20315 6.35772 6.1344 6.60103 6.21502 6.81737C6.6597 8.01067 7.59457 8.95699 8.78012 9.41692C9.02396 9.51152 9.30071 9.41367 9.43021 9.18646L9.57577 8.93096C9.6473 8.80543 9.60983 8.64597 9.48993 8.56541L9.0263 8.25391C8.94527 8.19948 8.84559 8.18041 8.75018 8.20098C8.65478 8.22157 8.57165 8.28004 8.52031 8.3631C8.50515 8.3876 8.4905 8.41141 8.47681 8.43357C8.45772 8.46453 8.4269 8.48647 8.3914 8.49438C8.35591 8.50228 8.31869 8.4955 8.28825 8.47556C7.84375 8.18448 7.46401 7.80411 7.17373 7.35902C7.13436 7.29865 7.14945 7.21793 7.20804 7.17593C7.23723 7.15496 7.2696 7.13137 7.30279 7.10699Z" fill="white"/>
<path d="M9.73189 7.76408C9.65533 7.76408 9.59327 7.70199 9.59327 7.62546C9.59327 6.71297 8.85091 5.97061 7.93843 5.97061C7.86187 5.97061 7.7998 5.90851 7.7998 5.83198C7.7998 5.75542 7.8619 5.69336 7.93843 5.69336C9.00378 5.69336 9.87052 6.56013 9.87052 7.62546C9.87052 7.70202 9.80849 7.76408 9.73189 7.76408Z" fill="white"/>
<path d="M9.29746 7.76373C9.2209 7.76373 9.15884 7.70164 9.15884 7.62511C9.15884 6.95215 8.61135 6.40469 7.93843 6.40469C7.86187 6.40469 7.7998 6.34259 7.7998 6.26606C7.7998 6.1895 7.8619 6.12744 7.93843 6.12744C8.76425 6.12744 9.43612 6.79931 9.43612 7.62514C9.43608 7.70167 9.37402 7.76373 9.29746 7.76373Z" fill="white"/>
<path d="M8.87078 7.7643C8.79422 7.7643 8.73216 7.7022 8.73216 7.62567C8.73216 7.18802 8.37607 6.83193 7.93843 6.83193C7.86187 6.83193 7.7998 6.76984 7.7998 6.69331C7.7998 6.61675 7.8619 6.55469 7.93843 6.55469C8.52898 6.55469 9.00943 7.03515 9.00943 7.6257C9.00943 7.70223 8.94734 7.7643 8.87078 7.7643Z" fill="white"/>
<path d="M11.4433 6.94006C11.4433 5.55145 10.3176 4.42578 8.92899 4.42578H7.14889C5.71776 4.42578 4.55762 5.58592 4.55762 7.01706V8.13479C4.55762 9.23893 5.24848 10.1812 6.22128 10.5544V11.4323C6.22128 11.5364 6.28678 11.6307 6.38425 11.6671C6.41256 11.6777 6.44206 11.6828 6.47128 11.6828C6.54271 11.6828 6.61281 11.6523 6.66118 11.5966L7.4163 10.7261H8.92903C10.3176 10.7261 11.4433 9.60043 11.4433 8.21182V6.94006H11.4433ZM10.8579 8.21182C10.8579 9.27543 9.99264 10.1407 8.92903 10.1407H7.58808L6.55481 11.3423C6.54131 11.358 6.51947 11.3636 6.50006 11.3564C6.48065 11.3492 6.46775 11.3307 6.46775 11.31C6.46775 11.0541 6.46775 10.479 6.46775 10.0215C5.69601 9.74199 5.14298 9.00184 5.14298 8.13482V7.01709C5.14298 5.91101 6.04285 5.01115 7.14893 5.01115H8.92906C9.99267 5.01115 10.858 5.87645 10.858 6.94006V8.21182H10.8579Z" fill="white"/>
<g clip-path="url(#clip0_13858_6872)">
<path d="M27.9999 15.9998C32.4181 15.9998 35.9998 12.4181 35.9998 7.99991C35.9998 3.58168 32.4181 0 27.9999 0C23.5817 0 20 3.58168 20 7.99991C20 12.4181 23.5817 15.9998 27.9999 15.9998Z" fill="#41B4E6"/>
<path d="M27.2224 9.16561L30.8378 11.8952L32.6627 4.10498L23.3359 7.7737L26.174 8.71374L31.3534 5.23948L27.2224 9.16561Z" fill="white"/>
<path d="M26.1748 8.71351L26.9521 11.5105L27.2232 9.16538L31.3543 5.23926L26.1748 8.71351Z" fill="#D2D2D7"/>
<path d="M28.3983 10.0527L26.9521 11.5107L27.2233 9.16553L28.3983 10.0527Z" fill="#B9B9BE"/>
</g>
<path d="M48 16C52.4183 16 56 12.4183 56 8C56 3.58172 52.4183 0 48 0C43.5817 0 40 3.58172 40 8C40 12.4183 43.5817 16 48 16Z" fill="#ADDC51"/>
<path d="M51.1304 4.85515C49.4074 3.13215 46.6143 3.13109 44.8903 4.85515C43.4494 6.29609 43.2093 8.49205 44.1921 10.1881L43.5771 12.4084L45.7975 11.7934C47.5028 12.7817 49.6966 12.529 51.1304 11.0952C52.8531 9.37249 52.8547 6.57946 51.1304 4.85515Z" fill="#5A915A"/>
<path d="M50.429 9.55072C50.4273 9.419 50.3042 9.31178 50.1533 9.29328C49.7837 9.24863 49.4343 9.15038 49.1122 9.00847C48.9952 8.95719 48.8603 8.97759 48.7791 9.06328C48.7057 9.14203 48.6301 9.21931 48.5525 9.295C47.7497 8.89119 47.0948 8.23631 46.691 7.4335C46.7667 7.35584 46.844 7.28031 46.9227 7.20687C47.0083 7.12565 47.0288 6.99078 46.9775 6.87375C46.8356 6.55165 46.7374 6.20231 46.6927 5.83268C46.6742 5.68184 46.5671 5.55862 46.4355 5.55696C46.3421 5.55696 46.2282 5.55696 46.108 5.55696C45.6302 5.52993 45.217 6.18284 45.4238 6.93481C45.9069 8.69372 47.2923 10.0791 49.0512 10.5622C49.8031 10.7691 50.4561 10.3556 50.4291 9.87794C50.429 9.76885 50.429 9.65978 50.429 9.55072Z" fill="white"/>
<defs>
<clipPath id="clip0_13858_6872">
<rect width="16" height="16" fill="white" transform="translate(20)"/>
</clipPath>
</defs>
</svg>
