<svg width="18" height="18" viewBox="0 0 18 18" fill="none" xmlns="http://www.w3.org/2000/svg">
<rect width="18" height="18" fill="white"/>
<path d="M9.32227 17.9891C10.6987 17.7935 11.9054 16.3569 12.6647 14.2353C11.567 13.9894 10.4469 13.8575 9.32227 13.8418V17.9891Z" fill="#E62828"/>
<path d="M11.5211 17.6521C11.6024 17.6285 11.6835 17.6048 11.7639 17.5787C11.8317 17.5569 11.8987 17.5333 11.9656 17.5099C12.0447 17.4826 12.1236 17.4545 12.2021 17.4246C12.269 17.3992 12.3353 17.3722 12.4018 17.3452C12.4784 17.313 12.5549 17.2809 12.6306 17.2487C12.6968 17.2197 12.7624 17.1892 12.8281 17.1586C12.9024 17.1235 12.9764 17.0879 13.0497 17.0508C13.1141 17.018 13.1784 16.9845 13.2428 16.9501C13.3149 16.9115 13.3865 16.872 13.4576 16.8315C13.522 16.7951 13.5841 16.7585 13.6468 16.7208C13.7165 16.6779 13.7859 16.635 13.8549 16.5921C13.9166 16.5529 13.9782 16.513 14.039 16.4718C14.1068 16.4261 14.1738 16.3785 14.2404 16.3309C14.3002 16.288 14.3597 16.2453 14.4182 16.2023C14.4826 16.1526 14.5485 16.1013 14.6131 16.0498C14.6704 16.004 14.7276 15.9586 14.784 15.9117C14.8482 15.8583 14.9098 15.803 14.9722 15.7477C15.0268 15.6992 15.0818 15.6511 15.1352 15.6013C15.1966 15.544 15.2565 15.4846 15.3163 15.4257C15.3682 15.3745 15.4206 15.3241 15.4714 15.2716C15.4808 15.2619 15.4897 15.2513 15.4995 15.2413C14.7978 14.8789 14.0588 14.5944 13.2952 14.3931C12.8981 15.6594 12.1915 16.807 11.2393 17.7316C11.2653 17.7248 11.2914 17.7193 11.3175 17.7126C11.3863 17.6932 11.4538 17.672 11.5211 17.6521Z" fill="#E62828"/>
<path d="M17.9998 9.3291H14.1427C14.1281 10.8351 13.9096 12.3322 13.4932 13.7797C14.3423 14.0065 15.1618 14.3326 15.9346 14.7512C17.2035 13.2219 17.9298 11.3152 17.9998 9.3291Z" fill="#E62828"/>
<path d="M9.32227 8.68584H13.5C13.4837 7.23303 13.2705 5.78918 12.8667 4.39355C11.7034 4.65886 10.5153 4.80054 9.32227 4.81625V8.68584Z" fill="#E62828"/>
<path d="M9.32227 0.0253906V4.17268C10.4469 4.15682 11.567 4.02503 12.6647 3.77921C11.9054 1.65757 10.6987 0.220951 9.32227 0.0253906Z" fill="#E62828"/>
<path d="M9.32227 13.1987C10.5153 13.2145 11.7034 13.3562 12.8667 13.6215C13.2705 12.2259 13.4837 10.7819 13.5 9.3291H9.32227V13.1987Z" fill="#E62828"/>
<path d="M15.9346 3.26367C15.1618 3.68228 14.3423 4.00837 13.4932 4.23519C13.9096 5.68265 14.1281 7.17975 14.1427 8.6858H17.9998C17.9296 6.69988 17.2033 4.79313 15.9346 3.26367Z" fill="#E62828"/>
<path d="M15.5001 2.77515C15.4906 2.76557 15.4817 2.7552 15.4724 2.74531C15.4215 2.69284 15.3688 2.64226 15.3169 2.59121C15.2572 2.53231 15.1977 2.47278 15.1361 2.4156C15.0829 2.36597 15.0277 2.319 14.9731 2.26952C14.9107 2.21423 14.8484 2.15847 14.7843 2.10506C14.7287 2.0581 14.6716 2.01317 14.6151 1.96809C14.5507 1.91594 14.4847 1.86411 14.4184 1.81431C14.3603 1.77049 14.3014 1.72808 14.2422 1.68567C14.175 1.63729 14.1074 1.58907 14.0389 1.54304C13.9788 1.50252 13.9177 1.46293 13.8566 1.42414C13.787 1.37937 13.7176 1.33554 13.6467 1.29313C13.5847 1.25591 13.522 1.21915 13.4592 1.18349C13.3872 1.14234 13.3151 1.10244 13.2424 1.06349C13.178 1.03129 13.1138 0.996259 13.0493 0.964058C12.9754 0.926674 12.9008 0.890703 12.8243 0.855361C12.7599 0.824731 12.6945 0.794887 12.6282 0.765828C12.552 0.732056 12.4751 0.701583 12.3983 0.669383C12.332 0.642365 12.266 0.615662 12.1991 0.590216C12.121 0.560371 12.0419 0.532412 11.9627 0.505081C11.8958 0.481519 11.8289 0.458115 11.761 0.436124C11.6806 0.410049 11.6002 0.386331 11.5175 0.362455C11.4506 0.34282 11.3834 0.322872 11.3157 0.304965C11.2898 0.297896 11.2634 0.292399 11.2373 0.285645C12.1895 1.2102 12.896 2.35764 13.2933 3.62415C14.0576 3.42278 14.7978 3.13816 15.5001 2.77515Z" fill="#E62828"/>
<path d="M0 8.6858H3.85717C3.87178 7.17975 4.09027 5.68265 4.50653 4.23519C3.65753 4.00853 2.83806 3.68244 2.06524 3.26367C0.796378 4.79297 0.0700562 6.69988 0 8.6858Z" fill="#E62828"/>
<path d="M8.67837 17.9891V13.8418C7.5537 13.8577 6.43359 13.9894 5.33594 14.2353C6.09509 16.3569 7.30191 17.7935 8.67837 17.9891Z" fill="#E62828"/>
<path d="M8.67777 9.3291H4.5C4.51634 10.7819 4.72933 12.2259 5.13333 13.6215C6.29664 13.3561 7.48462 13.2144 8.67777 13.1987V9.3291Z" fill="#E62828"/>
<path d="M8.67837 0.0253906C7.30191 0.220951 6.09509 1.65757 5.33594 3.77921C6.43359 4.02519 7.5537 4.15698 8.67837 4.17268V0.0253906Z" fill="#E62828"/>
<path d="M8.67777 4.81625C7.48477 4.80054 6.29664 4.65886 5.13333 4.39355C4.72933 5.78918 4.51634 7.23303 4.5 8.68584H8.67777V4.81625Z" fill="#E62828"/>
<path d="M6.76028 0.285645C6.7342 0.292399 6.70813 0.297897 6.68205 0.304651C6.61388 0.322872 6.54665 0.343135 6.47879 0.362769C6.39806 0.386331 6.31795 0.410049 6.2369 0.43581C6.16857 0.457958 6.10134 0.481519 6.03411 0.504924C5.95541 0.532726 5.87656 0.560372 5.79865 0.589902C5.73142 0.615662 5.66514 0.642365 5.59854 0.669697C5.52204 0.701897 5.44539 0.734098 5.36983 0.766142C5.30354 0.795201 5.23804 0.825674 5.17239 0.856304C5.09809 0.891332 5.0241 0.926988 4.95075 0.964058C4.88635 0.996887 4.82195 1.0305 4.7577 1.06474C4.6856 1.10339 4.61413 1.14297 4.54313 1.18349C4.47873 1.21946 4.41543 1.25638 4.35339 1.29408C4.28349 1.33617 4.21437 1.37968 4.14557 1.42272C4.08368 1.46231 4.02227 1.5022 3.96148 1.54336C3.89362 1.58907 3.82671 1.63666 3.76011 1.68425C3.70026 1.72714 3.64073 1.76986 3.58214 1.81306C3.51632 1.86254 3.45349 1.91406 3.38721 1.96542C3.33003 2.01113 3.27238 2.05653 3.21646 2.10381C3.15206 2.1569 3.09096 2.21187 3.02891 2.26685C2.97394 2.31586 2.91849 2.36345 2.86477 2.41419C2.80366 2.47121 2.74413 2.53043 2.68444 2.58917C2.63261 2.64038 2.57983 2.69096 2.52894 2.74358C2.51967 2.75332 2.51072 2.764 2.50098 2.77389C3.20248 3.13643 3.94169 3.42089 4.70524 3.62227C5.10233 2.35654 5.80855 1.20973 6.76028 0.285645Z" fill="#E62828"/>
<path d="M2.68243 15.4234C2.74228 15.4823 2.80181 15.5419 2.86323 15.5992C2.91664 15.6487 2.97161 15.6956 3.02643 15.7451C3.08879 15.8006 3.15115 15.8562 3.21524 15.9096C3.27084 15.9562 3.32755 16.0013 3.38441 16.0465C3.44881 16.0987 3.51306 16.1505 3.58123 16.2006C3.63919 16.2441 3.69809 16.2862 3.75699 16.3294C3.82422 16.3777 3.89208 16.4259 3.96057 16.4722C4.02073 16.5127 4.08183 16.5523 4.14293 16.5913C4.21252 16.6359 4.28194 16.6797 4.35279 16.7221C4.41483 16.7595 4.47751 16.7961 4.54034 16.8319C4.61228 16.8731 4.68438 16.913 4.7571 16.9518C4.82135 16.984 4.88575 17.019 4.95015 17.0512C5.02413 17.0886 5.09874 17.1246 5.17524 17.1601C5.23964 17.1904 5.30498 17.2202 5.37127 17.2494C5.44745 17.2832 5.52426 17.3137 5.60123 17.3459C5.66752 17.3729 5.73349 17.3996 5.8004 17.425C5.87847 17.455 5.95764 17.483 6.0368 17.5103C6.10372 17.5337 6.17063 17.5573 6.23849 17.5791C6.31891 17.6052 6.39934 17.6291 6.48196 17.6528C6.54887 17.6724 6.6161 17.6924 6.68365 17.7104C6.70972 17.7175 6.73611 17.723 6.76218 17.7298C5.80999 16.8051 5.10346 15.6576 4.70621 14.3911C3.94266 14.5926 3.20346 14.8771 2.50195 15.2398C2.51138 15.2494 2.52033 15.2597 2.52976 15.2696C2.57798 15.3218 2.62997 15.3724 2.68243 15.4234Z" fill="#E62828"/>
<path d="M2.06524 14.7512C2.83806 14.3326 3.65753 14.0065 4.50653 13.7797C4.09027 12.3322 3.87178 10.8351 3.85717 9.3291H0C0.0702132 11.315 0.796378 13.2218 2.06524 14.7512Z" fill="#E62828"/>
</svg>
