<svg width="243" height="121" viewBox="0 0 243 121" fill="none" xmlns="http://www.w3.org/2000/svg">
<rect y="0.854492" width="242.553" height="120" rx="8" fill="white" fill-opacity="0.2"/>
<path d="M151.918 43.1416C154.871 43.1416 157.628 43.0855 160.384 43.1978C160.722 43.2259 161.228 44.0683 161.341 44.5737C162.438 49.4878 163.394 54.4299 164.519 59.344C165.447 63.3033 166.544 67.2064 167.613 71.1096C167.782 71.7554 167.81 72.4575 168.851 72.4855C169.948 72.4855 170.032 71.8116 170.229 71.0815C172.367 62.2362 174.533 53.419 176.642 44.5456C176.895 43.4786 177.233 43.0293 178.358 43.0574C180.833 43.1135 183.28 43.0855 185.98 43.0855C185.53 45.2477 185.221 47.1852 184.715 49.0385C182.071 58.7543 179.371 68.4701 176.727 78.1858C176.473 79.1406 175.995 79.3933 175.039 79.3652C170.96 79.309 166.882 79.309 162.803 79.3652C161.763 79.3933 161.369 79.0002 161.059 78.0735C157.487 67.066 154.253 55.9182 152.03 44.4895C151.974 44.1244 151.974 43.7594 151.918 43.1416Z" fill="#F2F2F2"/>
<path d="M87.8712 67.8805C89.5869 68.7791 90.9933 69.5934 92.456 70.3235C95.2687 71.7556 98.2502 72.4295 101.401 72.2049C101.766 72.1768 102.16 72.1487 102.526 72.0925C104.551 71.6432 105.648 70.7166 105.788 69.2845C105.929 67.7682 105.198 66.7292 103.201 65.8868C100.275 64.6513 97.2939 63.528 94.3968 62.2363C93.131 61.6747 91.9215 60.8885 90.8527 59.9899C85.6491 55.7779 86.0147 48.1681 91.5559 44.4054C94.9031 42.1309 98.6722 41.6816 102.582 41.9062C105.929 42.1028 109.107 43.0013 112.202 44.293C113.017 44.63 113.355 45.0231 113.327 45.9217C113.27 47.8873 113.298 49.8529 113.298 52.0151C112.539 51.7062 111.948 51.3693 111.301 51.1727C108.517 50.3022 105.732 49.2913 102.863 48.6736C101.429 48.3647 99.7973 48.7297 98.3065 48.9825C97.1814 49.1509 96.3376 49.881 96.1125 51.0885C95.8875 52.3802 96.6188 53.2787 97.6033 53.8684C98.9253 54.6266 100.36 55.2724 101.766 55.8621C104.016 56.8169 106.323 57.6031 108.517 58.614C113.552 60.9447 115.127 64.567 114.789 69.3126C114.452 74.0301 111.414 77.2593 106.407 78.4387C100.388 79.8708 94.6218 79.1126 89.0806 76.3607C88.1524 75.9115 87.7868 75.3498 87.8149 74.3109C87.9274 72.261 87.8712 70.155 87.8712 67.8805Z" fill="#F2F2F2"/>
<path d="M82.0768 51.9034C79.461 50.9767 77.0139 49.8816 74.4543 49.2919C72.3728 48.8146 70.1226 48.8707 67.9568 48.8426C67.2255 48.8426 66.4379 49.2919 65.8191 49.7412C64.6659 50.5555 64.469 51.8753 65.4253 52.9143C66.1285 53.6724 67.0286 54.3745 67.9849 54.7957C71.0508 56.1435 74.2011 57.351 77.2951 58.6707C83.5957 61.3664 84.4958 67.4037 83.2019 71.6438C82.0206 75.6032 78.9265 77.5969 75.1574 78.4954C69.11 79.9275 63.2595 79.1974 57.7183 76.3332C56.9308 75.912 56.5651 75.4628 56.5932 74.508C56.6776 72.3739 56.6214 70.2117 56.6214 67.8249C57.6058 68.3865 58.4215 68.8358 59.2654 69.3132C62.8094 71.2788 66.466 72.6828 70.6289 72.2054C71.2758 72.1212 71.9228 71.9808 72.5135 71.7281C73.6667 71.2788 74.5105 70.5487 74.5949 69.2009C74.6793 67.7968 73.9761 66.8421 72.7947 66.3086C71.3602 65.6347 69.8132 65.1854 68.3787 64.5395C65.9035 63.4444 63.372 62.4054 61.0374 61.0576C57.2402 58.9235 55.665 55.5257 56.0588 51.2575C56.4526 47.1859 59.0403 44.7429 62.6407 43.2266C67.1973 41.3171 71.8946 41.6822 76.5638 42.8615C78.139 43.2547 79.6579 43.9005 81.1767 44.4902C81.5424 44.6306 82.0206 45.0799 82.0206 45.4168C82.105 47.579 82.0768 49.7693 82.0768 51.9034Z" fill="#F2F2F2"/>
<path d="M153.578 72.3735C153.859 74.5637 154.14 76.754 154.45 79.1408C152.762 79.3093 151.243 79.5339 149.696 79.5901C146.996 79.6743 144.267 79.7586 141.539 79.6743C135.97 79.5059 133.016 76.8382 132.229 71.3064C132.032 69.9305 131.919 68.5265 131.891 67.1224C131.863 59.6812 131.919 52.2399 131.835 44.7986C131.835 43.4227 132.257 43.0295 133.579 43.0857C135.829 43.1699 138.051 43.1138 140.498 43.1138C140.498 43.8158 140.498 44.3774 140.498 44.9109C140.498 52.4084 140.498 59.8777 140.498 67.3752C140.498 67.7964 140.498 68.2176 140.498 68.6388C140.583 71.4187 141.764 72.7104 144.577 72.6823C147.53 72.6823 150.427 72.4858 153.578 72.3735Z" fill="#F2F2F2"/>
<path d="M123.087 69.9022C125.759 69.9303 127.672 71.8959 127.616 74.5635C127.56 77.0065 125.422 79.0563 122.947 79.0283C120.303 79.0002 118.362 77.0346 118.418 74.395C118.446 71.6993 120.359 69.8741 123.087 69.9022Z" fill="#F2F2F2"/>
</svg>
