<?xml version="1.0" encoding="utf-8"?><svg xmlns="http://www.w3.org/2000/svg" xmlns:xlink="http://www.w3.org/1999/xlink"><symbol fill="none" viewBox="0 0 24 24" id="arrowFatUp" xmlns="http://www.w3.org/2000/svg"><path d="m3 11.25 9-9 9 9h-4.5v8.25a.75.75 0 0 1-.75.75h-7.5a.75.75 0 0 1-.75-.75v-8.25H3z" stroke="#fff" stroke-width="2" stroke-linecap="round" stroke-linejoin="round"/></symbol><symbol fill="none" viewBox="0 0 25 24" id="home" xmlns="http://www.w3.org/2000/svg"><path fill-rule="evenodd" clip-rule="evenodd" d="M12.882 2.332a.375.375 0 0 0-.468 0l-7.875 6.3a.375.375 0 0 0-.14.294v10.529c0 .207.167.375.374.375h4.125v-7.875a1.125 1.125 0 0 1 1.125-1.125h5.25a1.125 1.125 0 0 1 1.125 1.125v7.875h4.125a.375.375 0 0 0 .375-.375V8.925a.374.374 0 0 0-.14-.293l-7.876-6.3zM11.007.576a2.625 2.625 0 0 1 3.28 0l7.876 6.3c.622.498.985 1.252.985 2.05v10.529a2.625 2.625 0 0 1-2.625 2.625h-5.25a1.125 1.125 0 0 1-1.125-1.125V13.08h-3v7.875a1.125 1.125 0 0 1-1.125 1.125h-5.25a2.625 2.625 0 0 1-2.625-2.625V8.925c0-.797.363-1.551.986-2.05l7.875-6.3h-.002z" fill="#fff"/></symbol><symbol fill="none" viewBox="0 0 32 32" id="latvia" xmlns="http://www.w3.org/2000/svg"><g clip-path="url(#ca)"><path d="M16 32c8.837 0 16-7.163 16-16S24.837 0 16 0 0 7.163 0 16s7.163 16 16 16Z" fill="#F0F0F0"/><path d="M16 0C8.608 0 2.387 5.014.551 11.826H31.45C29.613 5.014 23.392 0 16 0ZM16 32c7.392 0 13.613-5.014 15.449-11.826H.55C2.387 26.986 8.608 32 16 32Z" fill="#A2001D"/></g><defs><clipPath id="ca"><path fill="#fff" d="M0 0h32v32H0z"/></clipPath></defs></symbol><symbol fill="none" viewBox="0 0 16 16" id="phone" xmlns="http://www.w3.org/2000/svg"><g clip-path="url(#da)"><path d="M4.36 3.333a8.2 8.2 0 0 0 .3 1.727l-.8.8a9.884 9.884 0 0 1-.507-2.527H4.36zm6.573 8.014c.567.16 1.147.26 1.734.3v.993c-.88-.06-1.727-.233-2.534-.5l.8-.793zM5 2H2.667C2.3 2 2 2.3 2 2.667 2 8.927 7.073 14 13.333 14c.367 0 .667-.3.667-.667v-2.326c0-.367-.3-.667-.667-.667a7.604 7.604 0 0 1-2.38-.38.683.683 0 0 0-.68.16l-1.466 1.467a10.1 10.1 0 0 1-4.394-4.394L5.88 5.727a.669.669 0 0 0 .167-.68 7.574 7.574 0 0 1-.38-2.38C5.667 2.3 5.367 2 5 2z" fill="#B82020"/></g><defs><clipPath id="da"><path fill="#fff" d="M0 0h16v16H0z"/></clipPath></defs></symbol><symbol fill="none" viewBox="0 0 32 32" id="russia" xmlns="http://www.w3.org/2000/svg"><g clip-path="url(#ea)"><path d="M31.5 16c0 8.56-6.94 15.5-15.5 15.5C7.44 31.5.5 24.56.5 16 .5 7.44 7.44.5 16 .5 24.56.5 31.5 7.44 31.5 16Z" fill="#F0F0F0" stroke="#fff"/><path d="M31.005 21.565C31.648 19.832 32 17.957 32 16c0-1.957-.352-3.832-.995-5.565H.995A15.966 15.966 0 0 0 0 16c0 1.957.352 3.832.995 5.565L16 22.956l15.005-1.39Z" fill="#0052B4"/><path d="M16 32c6.88 0 12.744-4.342 15.005-10.435H.995C3.255 27.658 9.121 32 16 32Z" fill="#D80027"/></g><defs><clipPath id="ea"><path fill="#fff" d="M0 0h32v32H0z"/></clipPath></defs></symbol><symbol fill="none" viewBox="0 0 32 32" id="united" xmlns="http://www.w3.org/2000/svg"><path fill-rule="evenodd" clip-rule="evenodd" d="M16 2C8.268 2 2 8.268 2 16s6.268 14 14 14 14-6.268 14-14S23.732 2 16 2Z" fill="#E92B2B"/><path fill-rule="evenodd" clip-rule="evenodd" d="M28.127 23H3.873a14.065 14.065 0 0 0 2.867 3.5h18.52c1.134-1 2.105-2.183 2.867-3.5ZM30 16H2c0 1.209.153 2.381.441 3.5H29.56c.288-1.119.441-2.291.441-3.5ZM28.127 9H3.873a13.915 13.915 0 0 0-1.432 3.5H29.56A13.912 13.912 0 0 0 28.127 9ZM25.259 5.5H6.739a13.947 13.947 0 0 1 9.26-3.5c3.55 0 6.792 1.322 9.26 3.5Z" fill="#FBFBFB"/><path fill-rule="evenodd" clip-rule="evenodd" d="M14.6 2.07V16H2C2 8.74 7.526 2.771 14.6 2.07Z" fill="#2A2FAF"/><path fill-rule="evenodd" clip-rule="evenodd" d="M4.135 8.567h.598l-.823.598.314.968-.693-.504c.186-.363.388-.717.604-1.062ZM2.332 12.958l.044-.19h.71l.315-.968.314.967h1.017l-.823.598.314.967-.822-.597-.823.597.314-.967-.56-.407ZM6.987 5.287c.39-.328.797-.635 1.22-.92h.725l-.823.598.314.967-.823-.597-.823.597.21-.645Z" fill="#FBFBFB"/><path d="m7.601 7.6.314.967h1.017l-.822.598.314.968-.823-.598-.823.598.314-.968-.823-.598h1.018L7.6 7.6ZM7.601 11.8l.314.967h1.017l-.822.598.314.967-.823-.597-.823.597.314-.967-.823-.598h1.018L7.6 11.8ZM11.8 3.4l.315.967h1.017l-.823.598.314.968-.823-.598-.823.598.315-.968-.823-.598h1.017L11.8 3.4ZM11.8 7.6l.315.967h1.017l-.823.598.314.968-.823-.598-.823.598.315-.968-.823-.598h1.017L11.8 7.6ZM11.8 11.8l.315.967h1.017l-.823.598.314.967-.823-.597-.823.597.315-.967-.823-.598h1.017l.314-.967Z" fill="#FBFBFB"/></symbol></svg>