<svg xmlns="http://www.w3.org/2000/svg" width="12" height="14" viewBox="0 0 12 13"><path d="M7.285 7.719h-2.57c-2.606 0-4.715 2-4.715 4.468 0 .45.383.813.855.813h10.29c.472 0 .855-.363.855-.813C12 9.72 9.89 7.72 7.285 7.72zM1.312 11.78c.211-1.601 1.657-2.844 3.403-2.844h2.57c1.746 0 3.192 1.243 3.402 2.844zM6 6.5c1.895 0 3.43-1.457 3.43-3.25S7.895 0 6 0C4.105 0 2.57 1.457 2.57 3.25 2.57 5.047 4.105 6.5 6 6.5zm0-5.281c1.18 0 2.145.91 2.145 2.031S7.18 5.281 6 5.281c-1.18 0-2.145-.91-2.145-2.031S4.82 1.219 6 1.219zm0 0"/></svg>