<svg xmlns="http://www.w3.org/2000/svg" preserveAspectRatio="xMidYMid" width="20" height="20"><path d="M10 10.832a.833.833 0 01-.833-.833V4.166a.834.834 0 111.666 0v5h3.334a.833.833 0 010 1.666H10zm0 9.167c-5.514 0-10-4.486-10-10s4.486-10 10-10c2.252 0 4.458.767 6.21 2.16a.832.832 0 11-1.037 1.304A8.237 8.237 0 0010 1.666c-4.595 0-8.333 3.738-8.333 8.333 0 4.595 3.738 8.333 8.333 8.333 4.595 0 8.333-3.738 8.333-8.333a8.237 8.237 0 00-.825-3.624.834.834 0 011.5-.727A9.903 9.903 0 0120 9.999c0 5.514-4.486 10-10 10z" fill="#8d8d8d" fill-rule="evenodd"/></svg>