<svg xmlns="http://www.w3.org/2000/svg" preserveAspectRatio="xMidYMid" width="20" height="20"><path d="M17.071 12.928a9.95 9.95 0 00-3.8-2.383 5.78 5.78 0 002.51-4.765A5.788 5.788 0 0010-.001 5.788 5.788 0 004.219 5.78a5.78 5.78 0 002.51 4.765 9.943 9.943 0 00-3.8 2.383A9.932 9.932 0 000 19.999h1.562c0-4.652 3.785-8.437 8.438-8.437 4.652 0 8.437 3.785 8.437 8.437H20a9.932 9.932 0 00-2.929-7.071zM5.781 5.78A4.223 4.223 0 0110 1.562a4.223 4.223 0 014.219 4.218A4.224 4.224 0 0110 9.999 4.224 4.224 0 015.781 5.78z" fill="#8d8d8d" fill-rule="evenodd"/></svg>