<svg width="48" height="48" fill="none" xmlns="http://www.w3.org/2000/svg"><path d="M24 6.545c-4.74 0-5.334.021-7.196.106-1.858.085-3.127.38-4.236.81a8.546 8.546 0 00-3.092 2.014 8.569 8.569 0 00-2.015 3.091c-.433 1.11-.727 2.379-.81 4.236-.084 1.862-.106 2.458-.106 7.198s.021 5.333.106 7.195c.085 1.858.38 3.127.81 4.237a8.553 8.553 0 002.014 3.092 8.547 8.547 0 003.09 2.014c1.11.432 2.38.726 4.237.811 1.862.085 2.457.106 7.197.106s5.333-.021 7.195-.106c1.858-.085 3.128-.38 4.238-.81a8.54 8.54 0 003.09-2.015 8.57 8.57 0 002.015-3.092c.429-1.11.723-2.379.81-4.236.084-1.862.106-2.456.106-7.196s-.022-5.335-.106-7.197c-.087-1.858-.381-3.127-.81-4.237a8.567 8.567 0 00-2.015-3.091 8.53 8.53 0 00-3.09-2.013c-1.113-.432-2.383-.726-4.24-.811-1.862-.085-2.455-.106-7.197-.106h.006zm-1.565 3.146H24c4.66 0 5.212.017 7.053.1 1.701.078 2.625.362 3.24.601a5.4 5.4 0 012.006 1.306c.61.61.989 1.192 1.306 2.007.239.615.524 1.538.601 3.24.084 1.84.102 2.393.102 7.051s-.018 5.21-.102 7.05c-.078 1.703-.362 2.626-.6 3.24a5.398 5.398 0 01-1.307 2.006c-.61.61-1.19.989-2.006 1.305-.614.24-1.539.524-3.24.602-1.84.084-2.393.102-7.053.102s-5.213-.019-7.053-.102c-1.702-.079-2.626-.363-3.241-.602a5.405 5.405 0 01-2.007-1.305 5.41 5.41 0 01-1.306-2.007c-.24-.614-.524-1.538-.602-3.24-.083-1.84-.1-2.392-.1-7.053 0-4.662.017-5.211.1-7.051.078-1.702.363-2.626.601-3.241a5.407 5.407 0 011.307-2.007 5.39 5.39 0 012.007-1.306c.615-.24 1.54-.524 3.24-.602 1.611-.073 2.235-.095 5.488-.098v.004zm10.883 2.898a2.094 2.094 0 10-.001 4.19 2.094 2.094 0 000-4.19zM24 15.036a8.964 8.964 0 000 17.926A8.961 8.961 0 0032.963 24 8.963 8.963 0 0024 15.036zm0 3.146a5.818 5.818 0 110 11.636 5.818 5.818 0 010-11.636z" fill="#fff"/></svg>