<svg xmlns="http://www.w3.org/2000/svg" xmlns:xlink="http://www.w3.org/1999/xlink" width="16px" height="18px" viewBox="0 0 16 18" version="1.1">
<g>
<path d="M 16 9.203125 C 16 14.179688 12.824219 17.71875 8.132812 17.71875 C 3.632812 17.71875 0 13.824219 0 9 C 0 4.175781 3.632812 0.28125 8.132812 0.28125 C 10.320312 0.28125 12.164062 1.140625 13.582031 2.5625 L 11.371094 4.84375 C 8.476562 1.847656 3.09375 4.097656 3.09375 9 C 3.09375 12.039062 5.355469 14.503906 8.132812 14.503906 C 11.351562 14.503906 12.558594 12.03125 12.746094 10.746094 L 8.132812 10.746094 L 8.132812 7.75 L 15.871094 7.75 C 15.949219 8.195312 16 8.625 16 9.203125 Z M 16 9.203125 "/>
</g>
</svg>
