<svg width="48" height="48" fill="none" xmlns="http://www.w3.org/2000/svg"><path d="M39.33 34.614a20.66 20.66 0 01-2.043 3.673c-1.074 1.531-1.954 2.592-2.631 3.18-1.05.967-2.176 1.462-3.382 1.49-.865 0-1.909-.246-3.123-.746-1.219-.497-2.339-.744-3.363-.744-1.074 0-2.226.247-3.458.744-1.234.5-2.228.76-2.988.786-1.156.049-2.308-.46-3.458-1.53-.734-.64-1.652-1.738-2.752-3.293-1.18-1.66-2.15-3.586-2.91-5.782C8.408 30.021 8 27.724 8 25.502c0-2.547.55-4.744 1.652-6.584a9.693 9.693 0 013.46-3.501 9.307 9.307 0 014.678-1.32c.918 0 2.122.284 3.618.842 1.492.56 2.45.844 2.87.844.314 0 1.378-.332 3.182-.994 1.706-.614 3.146-.869 4.325-.768 3.197.257 5.598 1.518 7.195 3.788-2.859 1.733-4.273 4.16-4.244 7.272.025 2.425.905 4.443 2.633 6.045A8.652 8.652 0 0040 32.852a28.368 28.368 0 01-.67 1.762zM31.998 5.76c0 1.9-.694 3.675-2.078 5.318-1.67 1.952-3.689 3.08-5.879 2.902a5.92 5.92 0 01-.044-.72c0-1.824.794-3.777 2.204-5.373.704-.809 1.6-1.48 2.685-2.017 1.083-.528 2.108-.82 3.072-.87.028.254.04.508.04.76z" fill="#fff"/></svg>