<svg width="48" height="48" fill="none" xmlns="http://www.w3.org/2000/svg"><path fill-rule="evenodd" clip-rule="evenodd" d="M30.584 16.731a8.968 8.968 0 00-6.262-2.398c-4.258 0-7.874 2.816-9.164 6.607a9.404 9.404 0 000 6.126h.006c1.295 3.786 4.906 6.602 9.164 6.602 2.198 0 4.085-.55 5.548-1.524v-.004a7.398 7.398 0 003.263-4.862h-8.817v-6.161h15.396c.192 1.07.282 2.163.282 3.251 0 4.866-1.774 8.98-4.861 11.767l.003.003C32.437 38.583 28.724 40 24.322 40c-6.171 0-11.815-3.41-14.586-8.813a15.73 15.73 0 010-14.367C12.507 11.41 18.151 8 24.322 8c4.055-.047 7.971 1.446 10.922 4.162l-4.66 4.568z" fill="#fff"/></svg>