<svg width="48" height="48" fill="none" xmlns="http://www.w3.org/2000/svg"><path d="M39.681 30.392s-.312 2.207-1.275 3.175c-1.218 1.275-2.581 1.282-3.206 1.356-4.475.325-11.194.325-11.194.325h-.012s-6.719 0-11.194-.325c-.625-.075-1.988-.08-3.206-1.356-.963-.968-1.269-3.175-1.269-3.175S8 27.8 8 25.211v-2.425c0-2.588.319-5.181.319-5.181s.312-2.207 1.268-3.175c1.22-1.275 2.82-1.232 3.532-1.369C15.68 12.817 24 12.742 24 12.742s6.725.013 11.2.331c.625.075 1.987.082 3.206 1.357.963.969 1.275 3.175 1.275 3.175S40 20.192 40 22.786v2.425c0 2.588-.319 5.181-.319 5.181zm-18.987-10.55v8.994l8.643-4.512-8.643-4.482z" fill="#fff"/></svg>