<svg width="26" height="24" fill="none" xmlns="http://www.w3.org/2000/svg"><path d="M24.209 16.477H7.614l.833-1.698 13.845-.025a.968.968 0 00.953-.797l1.917-10.732a.969.969 0 00-.95-1.14L6.599 2.028l-.15-.708a.99.99 0 00-.964-.78H1.179a.984.984 0 000 1.968h3.509l.657 3.126 1.62 7.84-2.085 3.402a.974.974 0 00-.084 1.026.98.98 0 00.878.54h1.75A2.862 2.862 0 009.71 23.02a2.861 2.861 0 002.285-4.579h4.49a2.862 2.862 0 002.285 4.579 2.861 2.861 0 002.285-4.579h3.158c.54 0 .983-.44.983-.983a.986.986 0 00-.986-.981zm-17.2-12.51l16.046.053-1.572 8.8-12.604.023-1.87-8.876zm2.7 17.074a.882.882 0 01-.88-.88c0-.485.395-.881.88-.881a.882.882 0 01.623 1.503.88.88 0 01-.623.258zm9.06 0a.883.883 0 01-.88-.88c0-.485.395-.881.88-.881a.883.883 0 01.623 1.503.88.88 0 01-.623.258z" fill="#9ABCCA"/></svg>